<svg xmlns="http://www.w3.org/2000/svg" xmlns:xlink="http://www.w3.org/1999/xlink" viewBox="0 0 396.23 458.61"><defs><style>.cls-1{fill:url(#linear-gradient);}.cls-2{fill:url(#linear-gradient-2);}.cls-3{fill:#d9b8ad;}.cls-4{fill:url(#linear-gradient-3);}.cls-20,.cls-25,.cls-5{fill:none;stroke-miterlimit:10;}.cls-5{stroke:#597080;stroke-linecap:round;stroke-width:0.36px;}.cls-6{fill:url(#linear-gradient-4);}.cls-7{fill:#546799;}.cls-8{fill:#d99f82;}.cls-9{fill:url(#linear-gradient-5);}.cls-10{fill:#86bf8f;}.cls-11{fill:#574639;}.cls-12{fill:url(#linear-gradient-6);}.cls-13{fill:url(#linear-gradient-7);}.cls-14{fill:#f5f5f5;}.cls-15{fill:#bd555f;}.cls-16{fill:#515151;}.cls-17{fill:#dadada;}.cls-18{fill:url(#linear-gradient-8);}.cls-19{fill:#bfbfbf;}.cls-20{stroke:#f5f5f5;stroke-width:2.21px;}.cls-21{fill:url(#linear-gradient-9);}.cls-22{fill:url(#linear-gradient-10);}.cls-23{fill:#e6cca1;}.cls-24{fill:#f0ebc0;}.cls-25{stroke:#e6cca1;stroke-width:0.84px;}.cls-26{fill:url(#linear-gradient-11);}</style><linearGradient id="linear-gradient" x1="198.12" y1="365.73" x2="198.12" gradientUnits="userSpaceOnUse"><stop offset="0" stop-color="#e6cca1"/><stop offset="0.22" stop-color="#e9d7ac"/><stop offset="0.65" stop-color="#eee6bb"/><stop offset="1" stop-color="#f0ebc0"/></linearGradient><linearGradient id="linear-gradient-2" x1="198.13" y1="458.61" x2="198.13" y2="365.71" gradientUnits="userSpaceOnUse"><stop offset="0" stop-color="#9d8066"/><stop offset="0.12" stop-color="#a28469"/><stop offset="0.58" stop-color="#af8f71"/><stop offset="1" stop-color="#b39374"/></linearGradient><linearGradient id="linear-gradient-3" x1="201.67" y1="347.47" x2="201.67" y2="258.91" gradientUnits="userSpaceOnUse"><stop offset="0" stop-color="#6da18a"/><stop offset="0.29" stop-color="#7bb18d"/><stop offset="0.61" stop-color="#83bc8e"/><stop offset="1" stop-color="#86bf8f"/></linearGradient><linearGradient id="linear-gradient-4" x1="201" y1="353.71" x2="201" y2="301.31" gradientUnits="userSpaceOnUse"><stop offset="0" stop-color="#546799"/><stop offset="0.01" stop-color="#546799"/><stop offset="0.4" stop-color="#5e83b5"/><stop offset="0.74" stop-color="#6493c6"/><stop offset="1" stop-color="#69c"/></linearGradient><linearGradient id="linear-gradient-5" x1="196.79" y1="353.82" x2="196.79" y2="326.93" gradientUnits="userSpaceOnUse"><stop offset="0.23" stop-color="#f5f5f5"/><stop offset="0.59" stop-color="#ebebeb"/><stop offset="1" stop-color="#dadada"/></linearGradient><linearGradient id="linear-gradient-6" x1="202.78" y1="355.99" x2="285.22" y2="355.99" gradientUnits="userSpaceOnUse"><stop offset="0" stop-color="#c98f8f"/><stop offset="0.07" stop-color="#cb9593"/><stop offset="0.38" stop-color="#d3a8a2"/><stop offset="0.68" stop-color="#d7b4aa"/><stop offset="1" stop-color="#d9b8ad"/></linearGradient><linearGradient id="linear-gradient-7" x1="196.77" y1="326.93" x2="196.77" y2="321.8" xlink:href="#linear-gradient-5"/><linearGradient id="linear-gradient-8" x1="317.56" y1="359.02" x2="317.56" y2="306.18" gradientUnits="userSpaceOnUse"><stop offset="0" stop-color="#a3a3a3"/><stop offset="0.27" stop-color="#b1b1b1"/><stop offset="0.6" stop-color="#bcbcbc"/><stop offset="1" stop-color="#bfbfbf"/></linearGradient><linearGradient id="linear-gradient-9" x1="70.53" y1="362.37" x2="70.53" y2="340.36" gradientUnits="userSpaceOnUse"><stop offset="0" stop-color="#e5e5e5"/><stop offset="0.44" stop-color="#f0f0f0"/><stop offset="0.92" stop-color="#f5f5f5"/></linearGradient><linearGradient id="linear-gradient-10" x1="70.58" y1="365.71" x2="70.58" y2="361.82" gradientUnits="userSpaceOnUse"><stop offset="0" stop-color="#dadada"/><stop offset="0.29" stop-color="#dfdfdf"/><stop offset="0.61" stop-color="#ededed"/><stop offset="0.75" stop-color="#f5f5f5"/></linearGradient><linearGradient id="linear-gradient-11" x1="200.14" y1="269.54" x2="200.14" y2="240.94" gradientUnits="userSpaceOnUse"><stop offset="0" stop-color="#d9b8ad"/><stop offset="0.49" stop-color="#d9b8ad"/><stop offset="0.65" stop-color="#d2a6a0"/><stop offset="0.85" stop-color="#cb9593"/><stop offset="1" stop-color="#c98f8f"/></linearGradient></defs><g id="Layer_2" data-name="Layer 2"><g id="Layer_1-2" data-name="Layer 1"><g id="Background"><path class="cls-1" d="M396.23,229.32C396.23,102.67,307.53,0,198.12,0S0,102.67,0,229.32c0,51.1,14.44,98.29,38.86,136.41H357.37C381.79,327.61,396.23,280.42,396.23,229.32Z"/><path class="cls-2" d="M198.13,458.61c65.27,0,123.17-36.54,159.26-92.9H38.88C75,422.07,132.87,458.61,198.13,458.61Z"/><path class="cls-3" d="M154.64,349.2l-26-3.08s16.37-17.05,23.94-29.37.23-26.77-12.09-20.85c0,0-27.72,27-36.25,45.72s1.89,21.56,7.11,22.51c2.68.49,8.23,1.1,13,1.58H154C156.83,362.88,163.26,355.1,154.64,349.2Z"/><path class="cls-3" d="M290.68,364.13c5.21-.95,15.64-3.79,7.11-22.51s-36.25-45.72-36.25-45.72c-12.32-5.92-19.66,8.53-12.09,20.85s23.94,29.37,23.94,29.37l-26,3.08c-9.49,6.5-1.36,14.71.64,16.51h29.67C282.44,365.23,288,364.62,290.68,364.13Z"/><path class="cls-4" d="M232.46,263.62c7.18,2.13,38.23,34.25,38.23,34.25l-16.58,35.54L241.47,317l.47,30.49H160.45V314.61l-8.06,13.11-19.74-33.64,36-31.59a137.36,137.36,0,0,1,30.73-3.58A124.43,124.43,0,0,1,232.46,263.62Z"/><line class="cls-5" x1="160.45" y1="314.61" x2="169.5" y2="262.26"/><path class="cls-6" d="M169.07,301.31a425.23,425.23,0,0,0,63.48.43s1.58,22.67,10,39.25l3.15,12.72H156.26l2.53-13S167.57,320,169.07,301.31Z"/><path class="cls-7" d="M220,260.35a10,10,0,0,1,5.61,1,1.11,1.11,0,0,1,.62.82l6.65,38.7,1,.36.17,6.3a1.73,1.73,0,0,1-1.89,1.76l-6.9-.65a2.26,2.26,0,0,1-2.05-2.39l.33-5.54,1.08-.21-5.31-39.32A.69.69,0,0,1,220,260.35Z"/><path class="cls-7" d="M174.59,262l-4.48,38.35-2,.51-.38,5.7a2.07,2.07,0,0,0,2.2,2.2l7.78-.54a2,2,0,0,0,1.83-2v-5.47L178,300.4l3.24-39c.07-.89-.76-1.32-1.66-1.37a12.91,12.91,0,0,0-3.84.62A1.59,1.59,0,0,0,174.59,262Z"/><circle class="cls-8" cx="173.91" cy="304.23" r="2.49"/><circle class="cls-8" cx="228.93" cy="304.78" r="2.49"/><line class="cls-5" x1="241.52" y1="316.86" x2="231.91" y2="263.74"/><polygon class="cls-9" points="208.22 353.82 185.36 353.82 184.41 326.93 209.17 326.93 208.22 353.82"/><path class="cls-10" d="M200.39,336.24c2.32,0,4.28,2.9,4.28,6.34s-2,6.34-4.28,6.34-4.27-2.91-4.27-6.34,1.95-6.34,4.27-6.34m0-2.94c-4,0-7.21,4.15-7.21,9.28s3.23,9.27,7.21,9.27,7.21-4.15,7.21-9.27-3.23-9.28-7.21-9.28Z"/><path class="cls-11" d="M200.75,344.86H200s-.3,1.77,0,2.15a.6.6,0,0,0,.72,0C201.05,346.63,200.75,344.86,200.75,344.86Z"/><path class="cls-10" d="M202.58,345.32a4.48,4.48,0,0,1-1.22-1.88.8.8,0,0,0,.41-.09c.13-.09.3-.29.17-.38a3.23,3.23,0,0,1-.89-1.4.79.79,0,0,0,.37-.07c.1-.06.22-.21.12-.28a2.85,2.85,0,0,1-.74-1.27.69.69,0,0,0,.31-.05c.07,0,.16-.15.09-.2-.48-.35-.72-1.61-.72-1.61a.09.09,0,0,0-.09-.07.1.1,0,0,0-.09.07s-.24,1.26-.72,1.61c-.07.05,0,.15.09.2a.72.72,0,0,0,.32.05,2.86,2.86,0,0,1-.75,1.27c-.1.07,0,.22.13.28a.72.72,0,0,0,.36.07,3.23,3.23,0,0,1-.89,1.4c-.13.09,0,.29.17.38a.83.83,0,0,0,.41.09,4.39,4.39,0,0,1-1.22,1.88c-.18.13.05.41.24.53a5.34,5.34,0,0,0,1.72.41h.46a5.28,5.28,0,0,0,1.72-.41C202.53,345.73,202.76,345.45,202.58,345.32Z"/><path class="cls-12" d="M279.51,365.52s13.45-8-.92-19.25l-70.27,5-5.54,14.49h50.44Z"/><path class="cls-3" d="M206.09,365.55c2.37-1.18,5.69-9.48,5.69-9.48a8.32,8.32,0,0,0,2.1-2.84c.6-3.63-.68-5.05-.68-5.05s1-.48.55-3.48-5-6-5-6l-.52,6.1a2.35,2.35,0,0,1-1.69,2.07c-4.83,1.38-19.07,5-17.4-.71,2-6.88-7.58-16.82-5.8-5S169.53,351,169.53,351l-15.44-1.83-1.22,16.58h52.71A2.05,2.05,0,0,0,206.09,365.55Z"/><rect class="cls-13" x="182.8" y="321.8" width="27.96" height="5.13"/><polygon class="cls-14" points="208.46 319.83 206.21 319.83 204.83 321.8 209.17 321.8 208.46 319.83"/><polygon class="cls-15" points="225.17 361.2 218.22 362.38 218.93 365.71 225.03 365.71 225.17 361.2"/><path class="cls-15" d="M217.15,355.21V350.6s3.38-1.9,6.23-.44l.72,3.86Z"/><circle class="cls-16" cx="221.21" cy="358.01" r="5.37"/><circle class="cls-14" cx="221.21" cy="358.01" r="4.38"/><path class="cls-17" d="M361,306.18H294.09a8,8,0,0,0-7.52,5.2L268.48,359h79.13l17.7-46.62A4.59,4.59,0,0,0,361,306.18Z"/><path class="cls-18" d="M361.07,306.18H294.85a8,8,0,0,0-7.45,5.2L269.5,359h78.3l17.51-46.62A4.59,4.59,0,0,0,361.07,306.18Z"/><rect class="cls-19" x="232.03" y="359.02" width="117.27" height="6.69" rx="3.35"/><rect class="cls-17" x="232.03" y="359.02" width="38.66" height="6.69" rx="1.84"/><ellipse class="cls-20" cx="51.75" cy="347.47" rx="3.14" ry="4.46" transform="translate(-130.63 47.22) rotate(-22.81)"/><path class="cls-21" d="M90.25,340.36c-.24,17.47-6.73,22-6.73,22h-26s-6.49-4.54-6.72-22Z"/><path class="cls-22" d="M95.24,362.82a5.25,5.25,0,0,0-3.95,2.89H49.87a5.25,5.25,0,0,0-3.95-2.89c-3-.51,0-1,0-1H95.24S98.24,362.31,95.24,362.82Z"/><rect class="cls-23" x="281.97" y="163.22" width="89.08" height="118.02"/><rect class="cls-24" x="287.42" y="168.68" width="78.19" height="107.09"/><rect class="cls-23" x="293.31" y="174.86" width="66.42" height="94.73"/><rect class="cls-23" x="15.14" y="188.28" width="122.33" height="5.86"/><rect class="cls-23" x="22.65" y="194.14" width="7.94" height="7.94"/><rect class="cls-23" x="122.05" y="194.2" width="7.94" height="7.94"/><rect class="cls-23" x="48.25" y="131.66" width="11.36" height="57.35"/><rect class="cls-23" x="58.58" y="135.24" width="9.14" height="55.09"/><rect class="cls-23" x="67.72" y="127.85" width="9.18" height="61.88"/><rect class="cls-23" x="31.8" y="141.69" width="5.68" height="47.99" transform="translate(80.46 2.74) rotate(27.51)"/><circle class="cls-23" cx="107.52" cy="168.73" r="19.79"/><rect class="cls-23" x="76.31" y="140.17" width="12.04" height="50.07"/><circle class="cls-24" cx="326.41" cy="222.23" r="28.79"/><circle class="cls-25" cx="326.41" cy="222.23" r="28.79"/><circle class="cls-25" cx="326.41" cy="222.23" r="16.18"/><path class="cls-23" d="M326.41,204.64a17.59,17.59,0,1,1-17.59,17.59,17.61,17.61,0,0,1,17.59-17.59m0-9.85a27.44,27.44,0,1,0,27.44,27.44,27.44,27.44,0,0,0-27.44-27.44Z"/><path class="cls-23" d="M321.18,225.3h-1.82s-.74,3.45,0,4.19a1.85,1.85,0,0,0,1.82,0C321.92,228.75,321.18,225.3,321.18,225.3Z"/><path class="cls-23" d="M325.76,226.2a8.88,8.88,0,0,1-3.06-3.66,2.61,2.61,0,0,0,1-.18c.34-.17.75-.55.42-.74a6.4,6.4,0,0,1-2.22-2.72,2.12,2.12,0,0,0,.91-.14c.26-.12.57-.41.32-.55a5.33,5.33,0,0,1-1.87-2.47,2.26,2.26,0,0,0,.8-.1c.17-.09.39-.29.22-.39-1.2-.68-1.81-3.14-1.81-3.14a.26.26,0,0,0-.23-.13.25.25,0,0,0-.22.13s-.61,2.46-1.81,3.14c-.18.1,0,.3.22.39a2.23,2.23,0,0,0,.8.1,5.39,5.39,0,0,1-1.87,2.47c-.25.14.06.43.31.55a2.17,2.17,0,0,0,.92.14,6.42,6.42,0,0,1-2.23,2.72c-.33.19.09.57.43.74a2.59,2.59,0,0,0,1,.18,8.79,8.79,0,0,1-3,3.66c-.47.26.12.8.6,1,1.22.61,4.88,0,4.88,0s3.66.61,4.88,0C325.63,227,326.22,226.46,325.76,226.2Z"/><path class="cls-23" d="M333,225.3h-1.81s-.74,3.45,0,4.19a1.83,1.83,0,0,0,1.81,0C333.71,228.75,333,225.3,333,225.3Z"/><path class="cls-23" d="M337.55,226.2a8.79,8.79,0,0,1-3.05-3.66,2.59,2.59,0,0,0,1-.18c.34-.17.76-.55.43-.74a6.42,6.42,0,0,1-2.23-2.72,2.17,2.17,0,0,0,.92-.14c.25-.12.56-.41.31-.55a5.33,5.33,0,0,1-1.87-2.47,2.26,2.26,0,0,0,.8-.1c.18-.09.39-.29.22-.39-1.2-.68-1.81-3.14-1.81-3.14a.25.25,0,0,0-.22-.13.26.26,0,0,0-.23.13s-.61,2.46-1.81,3.14c-.17.1,0,.3.22.39a2.26,2.26,0,0,0,.8.1,5.33,5.33,0,0,1-1.87,2.47c-.25.14.06.43.31.55a2.17,2.17,0,0,0,.92.14,6.35,6.35,0,0,1-2.23,2.72c-.33.19.09.57.43.74a2.61,2.61,0,0,0,1,.18,8.88,8.88,0,0,1-3.06,3.66c-.46.26.12.8.6,1,1.23.61,4.89,0,4.89,0s3.65.61,4.88,0C337.43,227,338,226.46,337.55,226.2Z"/><path class="cls-23" d="M327.79,229H325s-1.12,5.23,0,6.35a2.77,2.77,0,0,0,2.76,0C328.92,234.21,327.79,229,327.79,229Z"/><path class="cls-23" d="M334.74,230.34c-1.92-1.09-3.46-3.28-4.64-5.55a4.11,4.11,0,0,0,1.56-.28c.51-.26,1.14-.84.64-1.12a9.92,9.92,0,0,1-3.38-4.12,3.51,3.51,0,0,0,1.39-.22c.39-.19.86-.62.49-.84a8.05,8.05,0,0,1-2.85-3.75,2.79,2.79,0,0,0,1.21-.16c.27-.13.61-.43.34-.58-1.82-1-2.75-4.77-2.75-4.77a.39.39,0,0,0-.34-.2.4.4,0,0,0-.34.2s-.93,3.73-2.75,4.77c-.26.15.07.45.34.58a2.79,2.79,0,0,0,1.21.16,8.1,8.1,0,0,1-2.84,3.75c-.38.22.09.65.48.84a3.51,3.51,0,0,0,1.39.22,9.77,9.77,0,0,1-3.38,4.12c-.5.28.13.86.65,1.12a4,4,0,0,0,1.55.28c-1.18,2.27-2.72,4.46-4.64,5.55-.7.4.19,1.22.92,1.59,1.4.7,4.92,1,6.55,1.18a9.88,9.88,0,0,0,1.72,0c1.64-.13,5.15-.48,6.55-1.18C334.55,231.56,335.45,230.74,334.74,230.34Z"/><path class="cls-24" d="M321.07,244.4a3.59,3.59,0,0,1-.79,1.19,3.91,3.91,0,0,1-1.21.86,3.79,3.79,0,0,1-1.51.34,4,4,0,0,1-1.69-.33,4.08,4.08,0,0,1-1.64-1.19,3.1,3.1,0,0,1-.67-1.63l2-.45a1.33,1.33,0,0,0,.15.71,1.75,1.75,0,0,0,.43.5,2.43,2.43,0,0,0,.54.31,1.58,1.58,0,0,0,.81.14,1.66,1.66,0,0,0,.69-.23,2.13,2.13,0,0,0,.55-.49,2.94,2.94,0,0,0,.38-.63,2.7,2.7,0,0,0,.19-.78,2.08,2.08,0,0,0-.07-.75,1.74,1.74,0,0,0-.35-.64,1.76,1.76,0,0,0-.64-.45,2.21,2.21,0,0,0-.59-.14,1.72,1.72,0,0,0-.64.06,1.47,1.47,0,0,0-.58.37l-1.22-1.64a2.33,2.33,0,0,1,1.1-.61,4.13,4.13,0,0,1,1.37-.11,4.54,4.54,0,0,1,1.34.33,3.67,3.67,0,0,1,1.34.93,4.05,4.05,0,0,1,.79,1.34,4.1,4.1,0,0,1,.25,1.51A3.73,3.73,0,0,1,321.07,244.4Z"/><path class="cls-24" d="M309.21,242.24l-1.75-1.65,3.56-7.43,1.59,1.5-.76,1.4,1.62,1.52,1.35-.84,1.6,1.51Zm1.93-4.88-1.36,2.52,2.43-1.51Z"/><path class="cls-24" d="M306.36,227.88a1.66,1.66,0,0,1,1.2-.15,2.2,2.2,0,0,1,1,.64,4.7,4.7,0,0,1,.8,1.18l1.66,3.48L304,236.42l-2-4.11a1.58,1.58,0,0,1-.15-1,1.89,1.89,0,0,1,.42-.88,2.07,2.07,0,0,1,.77-.61,2.14,2.14,0,0,1,1.07-.2,1.75,1.75,0,0,1,1.05.43,1.92,1.92,0,0,1,1.19-2.18Zm-1.66,5.8,1.08-.52-.63-1.32a.79.79,0,0,0-.16-.23.42.42,0,0,0-.26-.12.64.64,0,0,0-.38.08.65.65,0,0,0-.28.22.4.4,0,0,0-.09.25.43.43,0,0,0,.06.26Zm2.2-3.64a.78.78,0,0,0-.28.22.65.65,0,0,0-.13.28.5.5,0,0,0,0,.29l.77,1.61,1.19-.57-.74-1.53a.61.61,0,0,0-.21-.26.57.57,0,0,0-.29-.11A.76.76,0,0,0,306.9,230Z"/><path class="cls-24" d="M308.35,226.45l-7.74,1.33-.36-2.12,7.73-1.33Z"/><path class="cls-24" d="M304,220.89l3.83.45-.25,2.14-7.8-.93.2-1.66,4.34-2.66-4-.47.26-2.14,7.79.93-.2,1.7Z"/><path class="cls-24" d="M306.16,211.74a4.11,4.11,0,0,1-1-1.06,3.92,3.92,0,0,1,.22-4.49,4,4,0,0,1,1.55-1.3,3.14,3.14,0,0,1,1.74-.27l0,2a1.28,1.28,0,0,0-.72,0,1.93,1.93,0,0,0-.59.3,2.59,2.59,0,0,0-.43.45,1.71,1.71,0,0,0-.33.75,1.8,1.8,0,0,0,.06.73,2.38,2.38,0,0,0,.34.65,2.9,2.9,0,0,0,.53.52,2.77,2.77,0,0,0,.7.37,2.17,2.17,0,0,0,.75.11,1.6,1.6,0,0,0,.71-.19,1.64,1.64,0,0,0,.58-.51,2.32,2.32,0,0,0,.29-.54,1.71,1.71,0,0,0,.09-.64,1.38,1.38,0,0,0-.23-.64l1.89-.79a2.22,2.22,0,0,1,.33,1.21,4,4,0,0,1-.22,1.35,4.42,4.42,0,0,1-.64,1.22,3.51,3.51,0,0,1-1.23,1.08,4.05,4.05,0,0,1-3,.33A4,4,0,0,1,306.16,211.74Z"/><path class="cls-24" d="M316.82,206.45a3.87,3.87,0,0,1-3.1.43,4.21,4.21,0,0,1-1.36-.67,4.11,4.11,0,0,1-1-1.12,3.58,3.58,0,0,1-.52-1.43,4,4,0,0,1,.05-1.51,3.85,3.85,0,0,1,.63-1.42,4,4,0,0,1,1.21-1.1,3.83,3.83,0,0,1,1.56-.56,3.77,3.77,0,0,1,1.54.13,4.26,4.26,0,0,1,1.36.69,3.89,3.89,0,0,1,1,1.1,3.8,3.8,0,0,1,.52,1.42,4,4,0,0,1,0,1.51,4,4,0,0,1-.63,1.41A3.85,3.85,0,0,1,316.82,206.45ZM313.24,204a2.39,2.39,0,0,0,.49.6,1.92,1.92,0,0,0,.63.4,1.56,1.56,0,0,0,.72.1,1.79,1.79,0,0,0,.77-.27,1.83,1.83,0,0,0,.6-.57,1.48,1.48,0,0,0,.22-.7,2.09,2.09,0,0,0-.07-.74,2.9,2.9,0,0,0-.3-.7,2.66,2.66,0,0,0-.5-.6,2.32,2.32,0,0,0-.62-.39,1.47,1.47,0,0,0-.72-.09,1.74,1.74,0,0,0-.77.27,1.77,1.77,0,0,0-.59.56,1.61,1.61,0,0,0-.23.7,2,2,0,0,0,.06.73A2.58,2.58,0,0,0,313.24,204Z"/><path class="cls-24" d="M320.62,204.47l-1.43-7.72,5.3-1,.34,1.85-3.17.59.23,1.28,2.59-.48.32,1.72-2.59.48.53,2.86Z"/><path class="cls-24" d="M326.26,203.56l.95-7.79,5.35.65-.23,1.86-3.2-.39-.16,1.3,2.61.32-.21,1.73-2.61-.32-.36,2.9Z"/><path class="cls-24" d="M337.74,205l-.79,1.7-5.07-2.37,3.33-7.1,5,2.33-.8,1.7-3-1.42-.47,1,2.58,1.21-.74,1.58-2.58-1.21-.53,1.12Z"/><path class="cls-24" d="M342.65,209.54l-1.3,1.36-4-3.87,5.42-5.67,4,3.8-1.3,1.35-2.41-2.3-.76.8,2.06,2-1.21,1.26-2.06-2-.86.89Z"/><path class="cls-24" d="M352.53,217.22l-7.45,2.47-.68-2,2.92-1-.83-2.5-2.92,1-.68-2.05,7.45-2.47.68,2.05-2.75.91.83,2.5,2.75-.91Z"/><path class="cls-24" d="M344.79,223.92a3.92,3.92,0,0,1,1.5-2.75,4.32,4.32,0,0,1,1.35-.69,4,4,0,0,1,1.5-.14,3.86,3.86,0,0,1,1.46.43,4.15,4.15,0,0,1,1.18.95,3.9,3.9,0,0,1,.76,1.35,4,4,0,0,1,.17,1.63,3.85,3.85,0,0,1-.48,1.58,3.71,3.71,0,0,1-1,1.16,4.09,4.09,0,0,1-1.35.68,3.78,3.78,0,0,1-1.49.15,3.82,3.82,0,0,1-1.44-.43,4,4,0,0,1-1.19-.94,4,4,0,0,1-.76-1.34A3.85,3.85,0,0,1,344.79,223.92Zm4.13-1.4a2.25,2.25,0,0,0-.78,0,2.29,2.29,0,0,0-.69.26,1.49,1.49,0,0,0-.51.52,1.67,1.67,0,0,0-.25.78,1.8,1.8,0,0,0,.1.82,1.54,1.54,0,0,0,.43.6,2.17,2.17,0,0,0,.64.38,2.73,2.73,0,0,0,.75.17,2.21,2.21,0,0,0,.77,0,1.94,1.94,0,0,0,.68-.27,1.46,1.46,0,0,0,.51-.51,1.88,1.88,0,0,0,.24-.78,1.61,1.61,0,0,0-.52-1.42,2,2,0,0,0-.63-.38A2.74,2.74,0,0,0,348.92,222.52Z"/><path class="cls-24" d="M342.59,231.12a3.86,3.86,0,0,1,1.05-1.27,3,3,0,0,1,1.27-.55,3.63,3.63,0,0,1,1.39,0,5.27,5.27,0,0,1,1.39.54l3.53,1.94-1,1.89-3.53-1.94a3.31,3.31,0,0,0-.68-.29,2,2,0,0,0-.67-.09,1.3,1.3,0,0,0-.59.16,1.17,1.17,0,0,0-.45.48,1.18,1.18,0,0,0,0,1.24,2.3,2.3,0,0,0,.44.51,3.22,3.22,0,0,0,.6.42l3.53,1.94-1,1.89-3.53-1.94a5.37,5.37,0,0,1-1.23-.93,3.62,3.62,0,0,1-.77-1.16,3,3,0,0,1-.19-1.36A3.74,3.74,0,0,1,342.59,231.12Z"/><path class="cls-24" d="M340.16,241.74a5.79,5.79,0,0,0,.76-.17,5.46,5.46,0,0,0,.67-.24,2.39,2.39,0,0,0,.62-.38.92.92,0,0,0,.29-.36.29.29,0,0,0-.05-.34.35.35,0,0,0-.34-.12,1.73,1.73,0,0,0-.53.15l-.75.32a6.42,6.42,0,0,1-1.29.42,2.22,2.22,0,0,1-1.09,0,2.1,2.1,0,0,1-1-.72,2.38,2.38,0,0,1-.56-1.06,2.07,2.07,0,0,1,0-1,3.1,3.1,0,0,1,.48-.94,4.6,4.6,0,0,1,.74-.79,7.32,7.32,0,0,1,1-.67,7.59,7.59,0,0,1,1.12-.52,7.14,7.14,0,0,1,1.11-.31l.5,2a7.59,7.59,0,0,0-.89.19,6.79,6.79,0,0,0-.82.29,3.56,3.56,0,0,0-.77.48.92.92,0,0,0-.32.39.27.27,0,0,0,.05.27.4.4,0,0,0,.41.11,3.55,3.55,0,0,0,.65-.22c.25-.11.52-.23.83-.35a4.75,4.75,0,0,1,1.2-.33,2,2,0,0,1,1,.11,2.06,2.06,0,0,1,.78.61,2.46,2.46,0,0,1,.62,1.37,2.53,2.53,0,0,1-.26,1.37,3.37,3.37,0,0,1-.91,1.16,4.26,4.26,0,0,1-.93.61,7.79,7.79,0,0,1-1,.39l-.87.24Z"/><path class="cls-24" d="M331,242.33l-.67-1.75,5.22-2,2.82,7.33-5.13,2-.67-1.75,3.11-1.2-.4-1-2.66,1-.63-1.63,2.66-1-.44-1.16Z"/><path class="cls-24" d="M326.75,246.78H326s-.32,1.47,0,1.79a.78.78,0,0,0,.78,0C327.06,248.25,326.75,246.78,326.75,246.78Z"/><path class="cls-24" d="M328.7,247.16a3.69,3.69,0,0,1-1.3-1.56,1.12,1.12,0,0,0,.44-.08c.14-.07.32-.23.18-.31a2.69,2.69,0,0,1-.95-1.16,1,1,0,0,0,.39-.07c.11,0,.24-.17.13-.23a2.36,2.36,0,0,1-.8-1.06.81.81,0,0,0,.34,0c.08,0,.17-.13.1-.17-.51-.29-.78-1.34-.78-1.34a.11.11,0,0,0-.09-.06.11.11,0,0,0-.1.06s-.26,1.05-.77,1.34c-.08,0,0,.13.09.17a.86.86,0,0,0,.34,0,2.29,2.29,0,0,1-.8,1.06c-.1.06,0,.18.14.23a1,1,0,0,0,.39.07,2.84,2.84,0,0,1-.95,1.16c-.14.08,0,.24.18.31a1,1,0,0,0,.44.08,3.71,3.71,0,0,1-1.31,1.56c-.2.12.05.35.26.45a5.46,5.46,0,0,0,2.09,0,5.45,5.45,0,0,0,2.09,0C328.65,247.51,328.9,247.28,328.7,247.16Z"/><path class="cls-26" d="M209.41,245.67s-.89,8.56,1.9,12.71a7.21,7.21,0,0,0,1.86,2,2,2,0,0,1,1.1,2.09,9.13,9.13,0,0,1-4.09,5c-6.33,3.75-15.31,1.72-19.53-.74a10.19,10.19,0,0,1-4.06-4.08,2.34,2.34,0,0,1,1.07-3.16A5.83,5.83,0,0,0,190,257c2.33-4.35-4.09-16-4.09-16Z"/></g></g></g></svg>