<svg xmlns="http://www.w3.org/2000/svg" xmlns:xlink="http://www.w3.org/1999/xlink" viewBox="0 0 102.67 128.23"><defs><style>.cls-1{fill:#66294c;}.cls-2{fill:url(#linear-gradient);}.cls-3{fill:url(#radial-gradient);}.cls-4{fill:#c98f8f;}.cls-5{fill:#733453;}.cls-6{fill:#d9b8ad;}.cls-7{fill:url(#linear-gradient-2);}.cls-8{fill:#fff;stroke:#c98f8f;}.cls-10,.cls-12,.cls-14,.cls-8,.cls-9{stroke-linecap:round;stroke-miterlimit:10;}.cls-8,.cls-9{stroke-width:0.71px;}.cls-10,.cls-14,.cls-15,.cls-9{fill:none;}.cls-9{stroke:url(#radial-gradient-2);}.cls-10{stroke:#733453;stroke-width:1.2px;}.cls-11{fill:#86bf8f;}.cls-12{stroke-width:0.77px;fill:url(#linear-gradient-3);stroke:url(#linear-gradient-4);}.cls-13{fill:#8c3f52;}.cls-14{stroke:#1a1a1a;stroke-width:0.8px;}</style><linearGradient id="linear-gradient" x1="50.86" y1="101.67" x2="50.86" y2="79.54" gradientUnits="userSpaceOnUse"><stop offset="0" stop-color="#d9b8ad"/><stop offset="0.49" stop-color="#d9b8ad"/><stop offset="0.65" stop-color="#d2a6a0"/><stop offset="0.85" stop-color="#cb9593"/><stop offset="1" stop-color="#c98f8f"/></linearGradient><radialGradient id="radial-gradient" cx="53.86" cy="55.81" r="31.14" gradientTransform="translate(-113.56 109.67) rotate(-90) scale(1 3)" gradientUnits="userSpaceOnUse"><stop offset="0.04" stop-color="#c99393"/><stop offset="0.17" stop-color="#cfa19d"/><stop offset="0.36" stop-color="#d6b2a9"/><stop offset="0.5" stop-color="#d9b8ad"/></radialGradient><linearGradient id="linear-gradient-2" x1="50.05" y1="70.68" x2="26.4" y2="48.28" gradientUnits="userSpaceOnUse"><stop offset="0.74" stop-color="#d9b8ad"/><stop offset="0.83" stop-color="#d3a8a1"/><stop offset="1" stop-color="#c98f8f"/></linearGradient><radialGradient id="radial-gradient-2" cx="57.64" cy="70.41" r="1.57" gradientUnits="userSpaceOnUse"><stop offset="0" stop-color="#c98f8f"/><stop offset="0.33" stop-color="#ca9292"/><stop offset="0.62" stop-color="#cf9d99"/><stop offset="0.89" stop-color="#d5afa6"/><stop offset="1" stop-color="#d9b8ad"/></radialGradient><linearGradient id="linear-gradient-3" x1="69.62" y1="58.82" x2="73.47" y2="64.3" gradientUnits="userSpaceOnUse"><stop offset="0.22" stop-color="#d4aca5" stop-opacity="0"/><stop offset="0.27" stop-color="#d2a7a1" stop-opacity="0.16"/><stop offset="0.36" stop-color="#d0a19d" stop-opacity="0.38"/><stop offset="0.45" stop-color="#ce9b98" stop-opacity="0.57"/><stop offset="0.55" stop-color="#cc9795" stop-opacity="0.73"/><stop offset="0.65" stop-color="#cb9392" stop-opacity="0.85"/><stop offset="0.75" stop-color="#ca9190" stop-opacity="0.93"/><stop offset="0.86" stop-color="#c98f8f" stop-opacity="0.98"/><stop offset="1" stop-color="#c98f8f"/></linearGradient><linearGradient id="linear-gradient-4" x1="71.66" y1="64.13" x2="71.66" y2="54.87" gradientUnits="userSpaceOnUse"><stop offset="0.42" stop-color="#c98f8f"/><stop offset="0.44" stop-color="#c98f8f" stop-opacity="0.92"/><stop offset="0.51" stop-color="#c98f8f" stop-opacity="0.68"/><stop offset="0.59" stop-color="#c98f8f" stop-opacity="0.47"/><stop offset="0.67" stop-color="#c98f8f" stop-opacity="0.3"/><stop offset="0.75" stop-color="#c98f8f" stop-opacity="0.17"/><stop offset="0.83" stop-color="#c98f8f" stop-opacity="0.07"/><stop offset="0.91" stop-color="#c98f8f" stop-opacity="0.02"/><stop offset="1" stop-color="#c98f8f" stop-opacity="0"/></linearGradient></defs><g id="Layer_2" data-name="Layer 2"><g id="Layer_1-2" data-name="Layer 1"><g id="Head"><path class="cls-1" d="M88.81,29S76.43,77.7,97.46,85.22A1,1,0,0,1,97.58,87c-6.11,3-23.66,10.71-39.52,7.48-21.9-4.46-7.16-73.38-7.16-73.38S77.56,1.35,88.81,29Z"/><path class="cls-1" d="M85.08,40.25S84,60.51,91.46,69.31C91.46,69.31,81,59.65,85.08,40.25Z"/><path class="cls-2" d="M53.14,101.65c5,.23,7.34-1.32,9-2.68A3.22,3.22,0,0,0,63,95.31c-1.73-4.42-1-11-1-11L38.49,79.54s6.71,12.19,3.73,16.61c-.78,1.16.58,2.59,1.63,3.52C45.3,101,48.38,101.42,53.14,101.65Z"/><path class="cls-3" d="M81.83,24.65s6.59,9.28.71,25.16a8.31,8.31,0,0,0-.47,3.73,24.53,24.53,0,0,0,1.48,5.76c2.31,6.22-4.39,22-15.64,26.53s-32.74-5.9-32.74-5.9-23-21.4-6.41-55.28Z"/><path class="cls-4" d="M40.29,52.45s8-29.62,30-19.44C70.3,33,37.13,7.74,40.29,52.45Z"/><path class="cls-4" d="M71.29,32s10.85-1.74,13.79,4.14a21,21,0,0,0-.79-4.83C83.61,29.27,77.33,24.89,71.29,32Z"/><path class="cls-5" d="M51.42,94.55c-13.35-9.1-20-34.34-17.84-45.61.92-4.94,9.47-5.06,9.47-5.06,5.19-28.23,27.25-9.46,27.25-9.46,15.63-11.53,20,6.7,20,6.7C103.53-1.95,63.19,8.82,63.19,8.82,41.19-8.32,5.94,12,12.89,42.68c0,0,6.63,31.05-4.86,41.88C0,92.16,57.29,98.54,51.42,94.55Z"/><ellipse class="cls-6" cx="31.2" cy="52.83" rx="5.93" ry="6.14"/><circle class="cls-7" cx="31.2" cy="52.83" r="4.25"/><ellipse class="cls-6" cx="32.09" cy="52.28" rx="2.41" ry="1.87"/><path class="cls-6" d="M32,50.86a2.17,2.17,0,0,0-1.72-2.16c-1.87-.59,3-1.1,3-1.1L36.59,49l-.38,3Z"/><path class="cls-5" d="M34.84,41.35S29.55,58.33,45,76.18c0,0-7.82-11.77-1.9-32.3Z"/><path class="cls-5" d="M41.82,39.17S39.28,49,44.38,61c0,0-2.92-7.48-.89-21.67Z"/><path class="cls-8" d="M77.49,71.65C74.57,74.44,65.4,75.08,60,71.59c0,0,2.66.69,9.77.68C75.74,72.27,77.72,71.64,77.49,71.65Z"/><path class="cls-9" d="M56.38,71.59a2.28,2.28,0,0,1,2.51-2.35"/><path class="cls-10" d="M52.67,45.1s5.14-3.38,10.59-.91"/><path class="cls-10" d="M81.48,46a7.33,7.33,0,0,0-7.68-1.33"/><path class="cls-11" d="M32.53,56.34a.83.83,0,1,0,.83.83.83.83,0,0,0-.83-.83Z"/><path class="cls-5" d="M15.05,49.59S15.68,69.87,8,78.5C8,78.5,18.73,69.08,15.05,49.59Z"/><path class="cls-5" d="M22.39,12.44S4.14,40.67,14.12,61.5C14.12,61.5.79,40.64,22.39,12.44Z"/><path class="cls-12" d="M68.31,62.63a4.54,4.54,0,0,0,5.89,0c3-2.51-3.32-3.66-3.11-7.36"/><path class="cls-13" d="M60.37,19.83S39,21.76,38.07,43.45C38.07,43.45,45.21,16,60.37,19.83Z"/><path class="cls-13" d="M64.52,15.29S56.69,3.55,36.59,9.65C21,14.39,19.77,39.68,20,50.69a98.38,98.38,0,0,1-.82,14.85,184.74,184.74,0,0,1-4.88,25.21s13.31-29.72,6-49.87c-7.92-21.67,5-30.47,16.86-33S64.52,15.29,64.52,15.29Z"/><path class="cls-14" d="M80.13,52.75a6.51,6.51,0,0,0-7.55-.5"/><path class="cls-14" d="M63.26,51.69a8.47,8.47,0,0,0-9.38,0"/></g><rect class="cls-15" width="102.67" height="128.23"/></g></g></svg>