<svg xmlns="http://www.w3.org/2000/svg" viewBox="0 0 415.22 415.22"><defs><style>.cls-1{fill:#fff;}.cls-2{fill:none;stroke:#403326;stroke-miterlimit:10;stroke-width:6px;}.cls-3{fill:#86bf8f;}.cls-4{fill:#735f4b;}.cls-5{fill:#b5d9a3;}.cls-6{fill:#574639;}</style></defs><g id="Layer_2" data-name="Layer 2"><g id="Layer_1-2" data-name="Layer 1"><circle class="cls-1" cx="207.61" cy="207.61" r="204.61"/><circle class="cls-2" cx="207.61" cy="207.61" r="204.61"/><circle class="cls-2" cx="207.61" cy="207.61" r="115"/><path class="cls-3" d="M207.61,82.61a125,125,0,1,1-88.39,36.61,124.18,124.18,0,0,1,88.39-36.61m0-70c-107.69,0-195,87.31-195,195s87.31,195,195,195,195-87.3,195-195-87.3-195-195-195Z"/><path class="cls-4" d="M170.45,229.44H157.54s-5.26,24.5,0,29.76c2.28,2.28,10.63,2.28,12.91,0C175.71,253.94,170.45,229.44,170.45,229.44Z"/><path class="cls-5" d="M203,235.83c-9-5.1-16.2-15.35-21.71-26a19.13,19.13,0,0,0,7.28-1.34c2.41-1.2,5.37-3.91,3-5.24C185,199.53,179.7,191.83,175.75,184a16.49,16.49,0,0,0,6.51-1c1.79-.9,4-2.92,2.26-3.91-5.82-3.31-10.27-10.76-13.32-17.59,2.23,0,4.43-.09,5.67-.71s2.82-2.05,1.59-2.75c-8.53-4.86-12.88-22.31-12.88-22.31a1.82,1.82,0,0,0-1.59-.92,1.84,1.84,0,0,0-1.59.92s-4.35,17.45-12.88,22.31c-1.23.7.33,2.12,1.59,2.75a13.83,13.83,0,0,0,5.68.71c-3,6.83-7.5,14.28-13.32,17.59-1.74,1,.46,3,2.26,3.91a16.45,16.45,0,0,0,6.51,1c-4,7.83-9.23,15.53-15.82,19.29-2.35,1.33.62,4,3,5.24a19.27,19.27,0,0,0,7.29,1.34c-5.51,10.61-12.75,20.86-21.71,26-3.3,1.89.88,5.72,4.28,7.42,8.69,4.34,34.69,0,34.69,0s26,4.34,34.69,0C202.09,241.55,206.28,237.72,203,235.83Z"/><path class="cls-4" d="M254.25,229.44H241.33s-5.26,24.5,0,29.76c2.28,2.28,10.63,2.28,12.92,0C259.51,253.94,254.25,229.44,254.25,229.44Z"/><path class="cls-5" d="M286.76,235.83c-9-5.1-16.2-15.35-21.7-26a19.17,19.17,0,0,0,7.28-1.34c2.41-1.2,5.37-3.91,3-5.24-6.6-3.76-11.88-11.46-15.83-19.29a16.45,16.45,0,0,0,6.51-1c1.8-.9,4-2.92,2.26-3.91-5.82-3.31-10.26-10.76-13.31-17.59a13.8,13.8,0,0,0,5.67-.71c1.26-.63,2.82-2.05,1.59-2.75-8.53-4.86-12.88-22.31-12.88-22.31a1.83,1.83,0,0,0-3.18,0s-4.35,17.45-12.88,22.31c-1.23.7.32,2.12,1.59,2.75s3.44.76,5.67.71c-3.05,6.83-7.5,14.28-13.31,17.59-1.74,1,.46,3,2.25,3.91a16.54,16.54,0,0,0,6.52,1c-4,7.83-9.24,15.53-15.83,19.29-2.34,1.33.62,4,3,5.24a19.17,19.17,0,0,0,7.28,1.34c-5.5,10.61-12.75,20.86-21.7,26-3.31,1.89.87,5.72,4.28,7.42,8.69,4.34,34.69,0,34.69,0s26,4.34,34.69,0C285.88,241.55,290.07,237.72,286.76,235.83Z"/><path class="cls-6" d="M217.42,255.58H197.8s-8,37.19,0,45.18c3.47,3.46,16.15,3.46,19.62,0C225.4,292.77,217.42,255.58,217.42,255.58Z"/><path class="cls-3" d="M266.79,265.27c-13.6-7.74-24.6-23.31-33-39.42,4.45-.16,8.47-.74,11.06-2,3.65-1.83,8.15-6,4.59-8-10-5.71-18-17.4-24-29.29,4,0,7.64-.42,9.89-1.54,2.72-1.36,6.07-4.43,3.42-5.93-8.83-5-15.58-16.33-20.22-26.71,3.39.08,6.73-.13,8.62-1.07s4.28-3.12,2.41-4.19c-13-7.37-19.56-33.87-19.56-33.87a2.79,2.79,0,0,0-4.83,0s-6.6,26.5-19.55,33.87c-1.87,1.07.49,3.23,2.41,4.19s5.22,1.15,8.61,1.07c-4.63,10.38-11.38,21.68-20.21,26.71-2.65,1.5.7,4.57,3.42,5.93,2.25,1.12,5.93,1.52,9.89,1.54-6,11.89-14,23.58-24,29.29-3.55,2,1,6.14,4.6,8,2.59,1.28,6.61,1.86,11.06,2C173,242,162,257.53,148.43,265.27c-5,2.87,1.33,8.68,6.5,11.27,10,5,34.95,7.5,46.56,8.44a75.79,75.79,0,0,0,12.24,0c11.61-.94,36.58-3.46,46.55-8.44C265.46,274,271.81,268.14,266.79,265.27Z"/><path class="cls-1" d="M167.92,364.71a27.12,27.12,0,0,1-5.72,8.44,28,28,0,0,1-8.67,6,27.42,27.42,0,0,1-10.79,2.34,28.9,28.9,0,0,1-12-2.52,28.24,28.24,0,0,1-11.53-8.58,21.76,21.76,0,0,1-4.68-11.62l14-3a9.34,9.34,0,0,0,1,5.06,11.27,11.27,0,0,0,3,3.55,17.05,17.05,0,0,0,3.77,2.26,11.86,11.86,0,0,0,5.75,1.06,11.65,11.65,0,0,0,4.95-1.59,15.21,15.21,0,0,0,4-3.43,19.22,19.22,0,0,0,2.73-4.47,18.08,18.08,0,0,0,1.4-5.47,15,15,0,0,0-.44-5.36,11.57,11.57,0,0,0-2.43-4.59,11.91,11.91,0,0,0-4.48-3.2,14.78,14.78,0,0,0-4.23-1.09,11.43,11.43,0,0,0-4.53.4,9.35,9.35,0,0,0-4.11,2.6l-8.53-11.78a16.39,16.39,0,0,1,7.81-4.26,28.79,28.79,0,0,1,9.76-.64,32.38,32.38,0,0,1,9.48,2.41,25.89,25.89,0,0,1,9.45,6.74,28.52,28.52,0,0,1,5.56,9.57,30.48,30.48,0,0,1,1.65,10.79A28.23,28.23,0,0,1,167.92,364.71Z"/><path class="cls-1" d="M83.77,348.41,71.44,336.53l25.92-52.47,11.19,10.79-5.5,9.86,11.35,10.94,9.65-5.86,11.25,10.84Zm14.14-34.48L88,331.67l17.36-10.54Z"/><path class="cls-1" d="M64.77,246.51a12,12,0,0,1,8.54-1,15.85,15.85,0,0,1,7.28,4.62,32.46,32.46,0,0,1,5.6,8.48l11.6,24.84L47.27,307,33.58,277.72a11.24,11.24,0,0,1-1-7,13.68,13.68,0,0,1,3-6.26,16.19,16.19,0,0,1,5.54-4.28,15.28,15.28,0,0,1,7.61-1.34A12.51,12.51,0,0,1,56.2,262a14.66,14.66,0,0,1,1.28-9Q59.51,249,64.77,246.51ZM52.6,287.64,60.36,284l-4.42-9.46a5.53,5.53,0,0,0-1.15-1.63,3.32,3.32,0,0,0-1.84-.88,4.91,4.91,0,0,0-2.69.56,5.1,5.1,0,0,0-2,1.51,3.35,3.35,0,0,0-.65,1.78,3.84,3.84,0,0,0,.39,1.85Zm15.9-25.72a5.7,5.7,0,0,0-2,1.51,4.36,4.36,0,0,0-1,2,3.37,3.37,0,0,0,.29,2.12L71.17,279l8.47-4-5.12-11a4.66,4.66,0,0,0-1.46-1.83,4.06,4.06,0,0,0-2.1-.79A4.87,4.87,0,0,0,68.5,261.92Z"/><path class="cls-1" d="M79,236.63l-55,9-2.48-15.12,55-9Z"/><path class="cls-1" d="M48.71,197l27.2,3.43L74,215.63l-55.32-7,1.49-11.85,30.92-18.66L23,174.61l1.92-15.19,55.32,7-1.52,12.07Z"/><path class="cls-1" d="M64.08,132.46a27.13,27.13,0,0,1-6.88-7.53,28.22,28.22,0,0,1-3.79-9.83,27.42,27.42,0,0,1,.24-11,28.75,28.75,0,0,1,5.23-11,28.25,28.25,0,0,1,11-9.21A21.78,21.78,0,0,1,82.3,82L82,96.34a9.27,9.27,0,0,0-5.17-.17,11.53,11.53,0,0,0-4.15,2.09,17.21,17.21,0,0,0-3.08,3.14,11.87,11.87,0,0,0-2.36,5.35,11.62,11.62,0,0,0,.39,5.19A15,15,0,0,0,70,116.58a18.52,18.52,0,0,0,3.71,3.69,17.88,17.88,0,0,0,5,2.64,14.88,14.88,0,0,0,5.31.83,11.81,11.81,0,0,0,5-1.3,12,12,0,0,0,4.16-3.61,14.63,14.63,0,0,0,2-3.86,11.59,11.59,0,0,0,.67-4.5,9.29,9.29,0,0,0-1.57-4.6l13.44-5.56a16.39,16.39,0,0,1,2.32,8.59,28.58,28.58,0,0,1-1.65,9.64A32.28,32.28,0,0,1,104,127.2a25.86,25.86,0,0,1-8.77,7.62A28.34,28.34,0,0,1,84.59,138a30.43,30.43,0,0,1-10.88-.91A28.11,28.11,0,0,1,64.08,132.46Z"/><path class="cls-1" d="M139.79,95.32a27.21,27.21,0,0,1-11.12,3.92,27.78,27.78,0,0,1-11-.91,29.13,29.13,0,0,1-9.62-4.83A28.45,28.45,0,0,1,101,85.56a27.14,27.14,0,0,1-3.67-10.17,29.37,29.37,0,0,1,.43-10.77,27.93,27.93,0,0,1,4.5-10,28.27,28.27,0,0,1,8.61-7.86,26.9,26.9,0,0,1,22.06-3,30,30,0,0,1,9.61,4.89,28,28,0,0,1,7.09,7.87,27.09,27.09,0,0,1,3.66,10.09,28.66,28.66,0,0,1-4.84,20.77A27.79,27.79,0,0,1,139.79,95.32ZM114.35,77.65a18.88,18.88,0,0,0,3.5,4.27,14.82,14.82,0,0,0,4.45,2.82,11.4,11.4,0,0,0,5.1.77,13.82,13.82,0,0,0,9.76-5.94,10.91,10.91,0,0,0,1.63-5,15.58,15.58,0,0,0-.53-5.28,19.63,19.63,0,0,0-2.14-5,18.59,18.59,0,0,0-3.47-4.23,14.72,14.72,0,0,0-4.44-2.78,10.76,10.76,0,0,0-5.11-.72,12.86,12.86,0,0,0-5.45,1.91,12.25,12.25,0,0,0-4.23,4,11.66,11.66,0,0,0-1.66,4.91,14.14,14.14,0,0,0,.45,5.23A19.33,19.33,0,0,0,114.35,77.65Z"/><path class="cls-1" d="M166.63,81.36,156.55,26.52l37.62-6.92,2.41,13.13L174,36.88,175.7,46l18.39-3.38,2.24,12.21L178,58.2l3.75,20.39Z"/><path class="cls-1" d="M206.45,74.93l6.73-55.35,38,4.61-1.61,13.26-22.77-2.77-1.11,9.2,18.55,2.25-1.5,12.32L224.16,56.2l-2.5,20.58Z"/><path class="cls-1" d="M288,85.18l-5.65,12.1-36-16.82,23.6-50.52,35.36,16.52-5.65,12.1-21.49-10-3.32,7.11,18.36,8.58-5.25,11.24-18.36-8.57-3.73,8Z"/><path class="cls-1" d="M322.7,117.08l-9.2,9.68L284.7,99.38,323.11,59l28.3,26.89-9.2,9.67L325,79.19l-5.41,5.69,14.69,14-8.55,9-14.69-14L305,100.25Z"/><path class="cls-1" d="M393.06,171.29,340.2,189.06l-4.88-14.52,20.7-7-6-17.71-20.69,6.95-4.88-14.52,52.86-17.76,4.88,14.52-19.51,6.55,5.95,17.72,19.51-6.55Z"/><path class="cls-1" d="M338.31,218.78a27.25,27.25,0,0,1,3.36-11.3,27.82,27.82,0,0,1,7.18-8.33,28.93,28.93,0,0,1,9.56-4.94A28.1,28.1,0,0,1,369,193.1a27.13,27.13,0,0,1,10.38,3,29.42,29.42,0,0,1,8.46,6.68,27.56,27.56,0,0,1,5.45,9.53,28.05,28.05,0,0,1,1.3,11.58,26.89,26.89,0,0,1-10.57,19.59,30.32,30.32,0,0,1-9.6,4.9,28.21,28.21,0,0,1-10.54,1.11,27.13,27.13,0,0,1-10.31-3,28.78,28.78,0,0,1-8.46-6.63,28.32,28.32,0,0,1-5.5-9.5A27.63,27.63,0,0,1,338.31,218.78Zm29.24-10.2a19,19,0,0,0-5.5.32,14.55,14.55,0,0,0-4.9,1.95,11.24,11.24,0,0,0-3.62,3.67,13.77,13.77,0,0,0-.93,11.39,10.79,10.79,0,0,0,3.06,4.24,15.76,15.76,0,0,0,4.58,2.68,20,20,0,0,0,5.3,1.2,18.79,18.79,0,0,0,5.47-.32,15.06,15.06,0,0,0,4.85-2,10.94,10.94,0,0,0,3.59-3.72,12.93,12.93,0,0,0,1.66-5.53,12.3,12.3,0,0,0-.77-5.78,11.71,11.71,0,0,0-3-4.24,14.42,14.42,0,0,0-4.5-2.71A20,20,0,0,0,367.55,208.58Z"/><path class="cls-1" d="M323.1,269.83a27.37,27.37,0,0,1,7.39-9,20.69,20.69,0,0,1,9-4,25.58,25.58,0,0,1,9.88.29,38.17,38.17,0,0,1,9.88,3.74l25.19,13.61-7.28,13.47L352,274.29a24.18,24.18,0,0,0-4.88-2,14.54,14.54,0,0,0-4.75-.61,9.1,9.1,0,0,0-4.17,1.19,8.5,8.5,0,0,0-3.14,3.43,8.84,8.84,0,0,0-1.2,4.62,8.49,8.49,0,0,0,1.32,4.15,15.91,15.91,0,0,0,3.16,3.63,23.92,23.92,0,0,0,4.29,2.94l25.18,13.6-7.28,13.48L335.34,305.1a36.78,36.78,0,0,1-8.79-6.49,25.63,25.63,0,0,1-5.55-8.22,20.5,20.5,0,0,1-1.43-9.65A28.17,28.17,0,0,1,323.1,269.83Z"/><path class="cls-1" d="M306.63,345.35a50.93,50.93,0,0,0,5.36-1.23,40.41,40.41,0,0,0,4.78-1.78,17.19,17.19,0,0,0,4.39-2.72,7.11,7.11,0,0,0,2-2.57,2.15,2.15,0,0,0-.41-2.41,2.62,2.62,0,0,0-2.42-.9,13.27,13.27,0,0,0-3.73,1.14l-5.32,2.31a48.31,48.31,0,0,1-9.13,3.1,15.44,15.44,0,0,1-7.78-.15,15.24,15.24,0,0,1-7-5,17.66,17.66,0,0,1-4.07-7.53,14.45,14.45,0,0,1,.18-7.28,21.13,21.13,0,0,1,3.29-6.66,32.93,32.93,0,0,1,5.26-5.69,44.92,44.92,0,0,1,6.89-4.81,56.45,56.45,0,0,1,7.9-3.77,43.62,43.62,0,0,1,7.89-2.25l3.72,14.49a58,58,0,0,0-6.35,1.4,44,44,0,0,0-5.76,2.15,22.48,22.48,0,0,0-5.47,3.44,6.77,6.77,0,0,0-2.24,2.76,1.9,1.9,0,0,0,.35,1.92,2.76,2.76,0,0,0,3,.8,25.52,25.52,0,0,0,4.54-1.63q2.65-1.2,5.93-2.56a35.3,35.3,0,0,1,8.49-2.4,13.24,13.24,0,0,1,6.72.72,14.7,14.7,0,0,1,5.62,4.27,17.41,17.41,0,0,1,4.49,9.71A18.33,18.33,0,0,1,336,342a24.51,24.51,0,0,1-6.39,8.3,31.64,31.64,0,0,1-6.63,4.39,52,52,0,0,1-7,2.83q-3.45,1.09-6.18,1.77Z"/><path class="cls-1" d="M241.65,350.08l-5-12.41L273.62,323l20.65,51.8L258,389.21l-4.94-12.4,22-8.78-2.91-7.3-18.83,7.5-4.59-11.52,18.82-7.5L264.34,341Z"/><path class="cls-1" d="M210,382.09h-5.52s-2.25,10.47,0,12.72c1,1,4.55,1,5.52,0C212.24,392.56,210,382.09,210,382.09Z"/><path class="cls-1" d="M223.9,384.82c-3.83-2.18-6.93-6.57-9.28-11.11a8.16,8.16,0,0,0,3.11-.56c1-.52,2.3-1.68,1.3-2.25-2.82-1.61-5.08-4.9-6.77-8.25a6.93,6.93,0,0,0,2.78-.43c.77-.38,1.71-1.25,1-1.67-2.49-1.42-4.39-4.6-5.7-7.53a5.69,5.69,0,0,0,2.43-.3c.54-.27,1.2-.88.68-1.18-3.65-2.07-5.51-9.54-5.51-9.54a.77.77,0,0,0-.68-.39.78.78,0,0,0-.68.39s-1.86,7.47-5.51,9.54c-.52.3.14.91.68,1.18a5.69,5.69,0,0,0,2.43.3c-1.31,2.93-3.21,6.11-5.7,7.53-.74.42.2,1.29,1,1.67a6.93,6.93,0,0,0,2.78.43c-1.69,3.35-3.95,6.64-6.76,8.25-1,.57.26,1.73,1.29,2.25a8.18,8.18,0,0,0,3.12.56c-2.36,4.54-5.46,8.93-9.29,11.11-1.41.81.38,2.44,1.83,3.17,3.72,1.86,14.84,0,14.84,0s11.12,1.86,14.84,0C223.52,387.26,225.31,385.63,223.9,384.82Z"/></g></g></svg>