<svg xmlns="http://www.w3.org/2000/svg" width="955.616" height="955.616" viewBox="0 0 955.616 955.616">
  <g id="Layer_2" data-name="Layer 2" transform="translate(-0.005 -0.005)">
    <g id="Layer_1" data-name="Layer 1" transform="translate(2.62 2.62)">
      <circle id="Ellipse_15" data-name="Ellipse 15" cx="475.193" cy="475.193" r="475.193" fill="none" stroke="#e6d4c3" stroke-miterlimit="10" stroke-width="5.23"/>
      <circle id="Ellipse_16" data-name="Ellipse 16" cx="267.065" cy="267.065" r="267.065" transform="translate(208.128 208.128)" fill="none" stroke="#e6d4c3" stroke-miterlimit="10" stroke-width="5.23"/>
      <path id="Path_72" data-name="Path 72" d="M463.793,173.455a290.288,290.288,0,1,1-205.2,85.222,290.288,290.288,0,0,1,205.2-85.222m0-162.455C213.767,11,11.075,213.673,11.05,463.7c0,250.07,202.673,452.763,452.7,452.787,250.07,0,452.762-202.673,452.787-452.7,0-249.919-202.646-452.6-452.654-452.654Z" transform="translate(11.401 11.318)" fill="#e6d4c3"/>
      <path id="Path_73" data-name="Path 73" d="M170.76,200.08H140.773s-12.224,56.886,0,69.11c5.326,5.326,24.688,5.326,29.988,0C182.984,256.966,170.76,200.08,170.76,200.08Z" transform="translate(218.119 325.794)" fill="#e6d4c3"/>
      <path id="Path_74" data-name="Path 74" d="M291.725,352.173c-20.826-11.851-37.631-35.66-50.414-60.295a44.368,44.368,0,0,0,16.911-3.089c5.593-2.663,12.464-9.082,7.031-12.2C249.94,267.883,237.663,249.96,228.5,231.8a37.868,37.868,0,0,0,15.127-2.344c4.155-2.077,9.295-6.765,5.326-9.081-13.529-7.7-23.969-24.954-30.946-40.853a31.959,31.959,0,0,0,13.316-1.625c2.93-1.465,6.551-4.767,3.7-6.392-19.814-11.292-29.908-51.826-29.908-51.826a4.288,4.288,0,0,0-7.4,0S187.621,160.21,167.807,171.5c-2.85,1.625.772,4.927,3.7,6.392a31.746,31.746,0,0,0,13.156,1.624c-7.084,15.979-17.391,33.157-30.92,40.853-4.021,2.317,1.092,7,5.326,9.081A37.791,37.791,0,0,0,174.2,231.8c-9.188,18.19-21.306,36.086-36.752,44.795-5.326,3.116,1.438,9.4,7.031,12.2a44.474,44.474,0,0,0,16.751,3.063c-12.783,24.634-29.615,48.444-50.414,60.295-7.67,4.394,2.051,13.316,9.96,17.231,20.187,10.093,80.562,0,80.562,0s60.375,10.093,80.562,0C289.675,365.463,299.4,356.568,291.725,352.173Z" transform="translate(172.682 188.534)" fill="#e6d4c3"/>
      <path id="Path_75" data-name="Path 75" d="M243.831,200.08H213.843s-12.224,56.886,0,69.11c5.326,5.326,24.688,5.326,29.988,0C256.055,256.966,243.831,200.08,243.831,200.08Z" transform="translate(339.648 325.794)" fill="#e6d4c3"/>
      <path id="Path_76" data-name="Path 76" d="M364.922,352.173c-20.8-11.851-37.631-35.66-50.414-60.295a44.262,44.262,0,0,0,16.911-3.089c5.593-2.663,12.464-9.082,7.031-12.2-15.313-8.709-27.564-26.632-36.752-44.795a37.791,37.791,0,0,0,15.127-2.344c4.181-2.077,9.295-6.765,5.326-9.082-13.529-7.7-23.836-24.954-30.92-40.853a31.744,31.744,0,0,0,13.156-1.625c2.956-1.465,6.552-4.767,3.7-6.392-19.814-11.292-29.908-51.826-29.908-51.826a4.288,4.288,0,0,0-7.4,0S260.684,160.21,240.87,171.5c-2.85,1.625.772,4.927,3.7,6.392a31.96,31.96,0,0,0,13.316,1.625c-7.084,15.979-17.417,33.157-30.92,40.853-4.048,2.317,1.065,7,5.326,9.082a37.87,37.87,0,0,0,15.127,2.344c-9.161,18.19-21.439,36.086-36.752,44.795-5.326,3.116,1.438,9.4,7.031,12.2a44.528,44.528,0,0,0,16.538,3.063c-12.81,24.634-29.615,48.443-50.414,60.295-7.7,4.394,2.024,13.316,9.934,17.231,20.187,10.093,80.562,0,80.562,0s60.374,10.093,80.561,0C362.871,365.462,372.725,356.567,364.922,352.173Z" transform="translate(294.085 188.535)" fill="#e6d4c3"/>
      <path id="Path_77" data-name="Path 77" d="M223.232,222.87H177.664s-18.642,86.394,0,104.93c7.99,7.99,37.5,7.99,45.567,0C241.767,309.264,223.232,222.87,223.232,222.87Z" transform="translate(274.732 363.698)" fill="#e6d4c3"/>
      <path id="Path_78" data-name="Path 78" d="M406.881,453.742c-31.586-18-57.125-54.143-76.54-91.427,10.333-.373,19.681-1.7,25.673-4.687,8.5-4.261,18.935-13.822,10.653-18.509C343.418,325.8,324.8,298.691,310.873,271.1c9.188,0,17.763-.985,22.957-3.6,6.339-3.143,14.115-10.28,7.99-13.769-20.533-11.691-36.193-37.924-46.952-62.026,7.856.186,15.606-.293,20-2.5s9.934-7.244,5.593-9.721c-30.067-17.124-45.274-78.644-45.274-78.644a6.472,6.472,0,0,0-11.212,0s-15.34,61.52-45.434,78.644c-4.314,2.477,1.145,7.51,5.619,9.721s12.118,2.663,20,2.5c-10.653,24.1-26.445,50.334-46.952,62.026-6.152,3.489,1.625,10.653,7.99,13.769,5.193,2.663,13.769,3.542,22.957,3.6-13.928,27.591-32.571,54.755-55.794,68.018-8.283,4.687,2.184,14.248,10.653,18.509,5.992,2.983,15.34,4.314,25.673,4.687-19.415,37.418-44.955,73.557-76.54,91.56-11.665,6.658,3.089,20.16,15.1,26.153,23.143,11.558,81.147,17.417,108.126,19.6a174.541,174.541,0,0,0,28.416,0c26.978-2.184,84.956-7.99,108.126-19.6C403.792,473.9,418.466,460.4,406.881,453.742Z" transform="translate(205.732 155.357)" fill="#e6d4c3"/>
      <path id="Path_79" data-name="Path 79" d="M223.309,376.319a63.332,63.332,0,0,1-13.316,19.6,66.366,66.366,0,0,1-20.187,13.822,63.626,63.626,0,0,1-25.061,5.327,67.115,67.115,0,0,1-27.75-5.939,65.2,65.2,0,0,1-26.632-19.974,50.6,50.6,0,0,1-10.653-27l32.384-7.137a21.625,21.625,0,0,0,2.37,11.745,26.632,26.632,0,0,0,6.951,8.283,40.137,40.137,0,0,0,8.762,5.326,27.4,27.4,0,0,0,13.316,2.477,26.845,26.845,0,0,0,11.5-3.675,34.891,34.891,0,0,0,9.188-7.99,43.252,43.252,0,0,0,6.365-10.36,41.491,41.491,0,0,0,3.3-12.677,35.261,35.261,0,0,0-.985-12.464,26.874,26.874,0,0,0-5.619-10.653,28.2,28.2,0,0,0-10.387-7.484,35.037,35.037,0,0,0-9.8-2.477,26.259,26.259,0,0,0-10.653.905,21.519,21.519,0,0,0-9.534,6.019l-19.761-27.378a38.031,38.031,0,0,1,18.163-9.854,66.844,66.844,0,0,1,22.664-1.438,75.445,75.445,0,0,1,22.025,5.619,60.054,60.054,0,0,1,21.918,15.74,66.18,66.18,0,0,1,12.837,22.238,70.5,70.5,0,0,1,3.782,25.061A65.167,65.167,0,0,1,223.309,376.319Z" transform="translate(158.859 463.598)" fill="#d9b898"/>
      <path id="Path_80" data-name="Path 80" d="M90.666,396.935,62.09,369.264l60.4-121.734,25.966,25.22-12.81,22.877,26.286,25.433,22.424-13.689,26.073,25.247Zm32.97-80.029L100.6,357.973l40.347-24.395Z" transform="translate(96.29 404.712)" fill="#d9b898"/>
      <path id="Path_81" data-name="Path 81" d="M103.427,216.724a28.043,28.043,0,0,1,19.867-2.29,36.672,36.672,0,0,1,16.858,10.653,74.728,74.728,0,0,1,13,19.708l26.845,57.818L62.547,357.234,30.882,289.083a26.1,26.1,0,0,1-2.29-16.352,31.745,31.745,0,0,1,7.137-14.514,37.284,37.284,0,0,1,12.89-9.934A35.419,35.419,0,0,1,66.3,245.194a29.055,29.055,0,0,1,17.284,7.35,31.772,31.772,0,0,1,19.947-35.82ZM75.011,312.2l18.03-8.362-10.227-22a12.756,12.756,0,0,0-2.663-3.808,7.537,7.537,0,0,0-4.261-2.024,11.266,11.266,0,0,0-6.258,1.278,12.224,12.224,0,0,0-4.607,3.515,7.643,7.643,0,0,0-1.491,4.1,9,9,0,0,0,.905,4.314Zm37.018-59.655a13.315,13.315,0,0,0-4.687,3.489,10.093,10.093,0,0,0-2.21,4.554,7.83,7.83,0,0,0,.666,4.927l12.384,26.632,19.681-9.161-11.851-25.46a10.652,10.652,0,0,0-3.382-4.261,9.239,9.239,0,0,0-4.874-1.864,11.1,11.1,0,0,0-5.726,1.145Z" transform="translate(39.853 348.219)" fill="#d9b898"/>
      <path id="Path_82" data-name="Path 82" d="M152.282,228.111,24.449,248.91l-5.7-35.1,127.833-20.8Z" transform="translate(24.207 314.035)" fill="#d9b898"/>
      <path id="Path_83" data-name="Path 83" d="M86.082,226.209l63.144,7.99-4.474,35.314L16.28,253.188l3.489-27.511,71.906-43.25-65.328-8.309,4.474-35.287,128.526,16.432L155.8,183.305Z" transform="translate(20.099 223.923)" fill="#d9b898"/>
      <path id="Path_84" data-name="Path 84" d="M72.037,189.022a62.878,62.878,0,0,1-15.979-17.5A65.461,65.461,0,0,1,47.269,148.7a63.6,63.6,0,0,1,.559-25.62,66.58,66.58,0,0,1,12.2-25.62A65.142,65.142,0,0,1,85.566,76a50.308,50.308,0,0,1,28.762-4.261l-.666,33.556a21.545,21.545,0,0,0-11.984-.4,27.084,27.084,0,0,0-9.667,4.847,40.081,40.081,0,0,0-7.137,7.3,27.431,27.431,0,0,0-5.513,12.224,26.632,26.632,0,0,0,.879,12.091A34.621,34.621,0,0,0,85.832,152a43.863,43.863,0,0,0,8.6,8.6,41.812,41.812,0,0,0,11.585,6.125,34.383,34.383,0,0,0,12.331,1.918,27.084,27.084,0,0,0,11.691-2.983,28.176,28.176,0,0,0,9.667-8.389,34.622,34.622,0,0,0,4.767-8.975,27.032,27.032,0,0,0,1.545-10.44,21.758,21.758,0,0,0-3.649-10.653l31.239-12.89a38.137,38.137,0,0,1,5.326,19.947,66.58,66.58,0,0,1-3.862,22.371,74.331,74.331,0,0,1-10.653,20.134,59.922,59.922,0,0,1-20.267,17.79,66.367,66.367,0,0,1-24.608,7.35,70.284,70.284,0,0,1-25.274-2.131A64.662,64.662,0,0,1,72.037,189.022Z" transform="translate(69.911 111.44)" fill="#d9b898"/>
      <path id="Path_85" data-name="Path 85" d="M184,159.507a63.384,63.384,0,0,1-25.806,9.108,65.221,65.221,0,0,1-25.46-2.1,68.177,68.177,0,0,1-22.344-11.239,65.647,65.647,0,0,1-16.565-18.456A62.637,62.637,0,0,1,85.3,113.194a68.018,68.018,0,0,1,1.012-24.981A64.29,64.29,0,0,1,96.78,64.937a65.7,65.7,0,0,1,19.974-18.243,62.771,62.771,0,0,1,51.266-6.871,70.1,70.1,0,0,1,22.291,11.372A65.649,65.649,0,0,1,206.8,69.464a63.7,63.7,0,0,1,8.5,23.436,66.765,66.765,0,0,1-.932,24.954,65.833,65.833,0,0,1-10.333,23.276A64.475,64.475,0,0,1,184,159.507Zm-59.07-41.04a43.171,43.171,0,0,0,8.123,9.907,33.581,33.581,0,0,0,10.333,6.551,26.232,26.232,0,0,0,11.851,1.784,31.958,31.958,0,0,0,22.664-13.8,25.274,25.274,0,0,0,3.782-11.638A35.714,35.714,0,0,0,180.458,99,46.339,46.339,0,0,0,175.5,87.414a43.463,43.463,0,0,0-7.99-9.827,33.9,33.9,0,0,0-10.386-6.258,25.539,25.539,0,0,0-11.878-1.678,29.908,29.908,0,0,0-12.65,4.341,28.23,28.23,0,0,0-9.827,9.348,27,27,0,0,0-3.862,11.4,32.543,32.543,0,0,0,1.039,12.144,45.46,45.46,0,0,0,4.98,11.585Z" transform="translate(133.719 54.853)" fill="#d9b898"/>
      <path id="Path_86" data-name="Path 86" d="M159.929,160.53,136.52,33.149,223.873,17.17l5.619,30.494L177.107,57.3,181,78.61l42.611-7.99,5.326,28.336-42.611,7.99L195.03,154.3Z" transform="translate(220.081 21.579)" fill="#d9b898"/>
      <path id="Path_87" data-name="Path 87" d="M180,145.622,195.606,17.07l88.178,10.653-3.728,30.787-52.891-6.418L224.5,73.4l43.09,5.326-3.356,28.709-43.09-5.326-5.806,47.937Z" transform="translate(292.397 21.413)" fill="#d9b898"/>
      <path id="Path_88" data-name="Path 88" d="M311.494,154.339l-13.1,28.123L214.74,143.447,269.5,26.08l82.159,38.3-13.1,28.07-49.935-23.3-7.7,16.538,42.611,19.894-12.224,26.179L268.7,111.861l-8.629,18.509Z" transform="translate(350.176 36.398)" fill="#d9b898"/>
      <path id="Path_89" data-name="Path 89" d="M336.465,186.291l-21.306,22.5L248.18,145.277,337.29,51.32l65.781,62.372-21.306,22.5-40-37.791-12.57,13.316,34.169,32.384-19.788,20.72-34.2-32.384-14.062,14.807Z" transform="translate(405.793 78.377)" fill="#d9b898"/>
      <path id="Path_90" data-name="Path 90" d="M442.229,216.952,319.536,258.364l-11.4-33.689,48.071-16.139-13.9-41.146-47.937,16.219L282.89,149.946,405.69,108.4l11.4,33.716L371.814,157.4l13.9,41.12,45.274-15.287Z" transform="translate(463.522 173.312)" fill="#d9b898"/>
      <path id="Path_91" data-name="Path 91" d="M295.179,228.079a63.062,63.062,0,0,1,7.776-26.232A64.423,64.423,0,0,1,319.6,182.458a67.058,67.058,0,0,1,22.184-11.505,65.54,65.54,0,0,1,24.661-2.663,62.8,62.8,0,0,1,24.129,6.951,67.888,67.888,0,0,1,19.654,15.473,64.659,64.659,0,0,1,12.7,22.1,65.591,65.591,0,0,1,3.063,26.9,62.478,62.478,0,0,1-24.5,45.541,69.243,69.243,0,0,1-22.264,11.4,65.437,65.437,0,0,1-24.475,2.663,63.409,63.409,0,0,1-23.969-6.871,66.581,66.581,0,0,1-19.628-15.367,65.758,65.758,0,0,1-12.81-22.025A64.877,64.877,0,0,1,295.179,228.079ZM363.064,204.3a43.542,43.542,0,0,0-12.783.772,33.822,33.822,0,0,0-11.372,4.527,26.259,26.259,0,0,0-8.389,8.549,28.949,28.949,0,0,0-3.915,12.943,28.63,28.63,0,0,0,1.785,13.5,25.566,25.566,0,0,0,7.137,9.854,36.915,36.915,0,0,0,10.653,6.205,46.289,46.289,0,0,0,12.3,2.663,43.815,43.815,0,0,0,12.7-.746,34.329,34.329,0,0,0,11.265-4.554,25.141,25.141,0,0,0,8.309-8.655,29.535,29.535,0,0,0,3.835-12.837,28.1,28.1,0,0,0-1.811-13.316,27.059,27.059,0,0,0-6.951-9.827,32.465,32.465,0,0,0-10.466-6.285,45.274,45.274,0,0,0-12.224-2.8Z" transform="translate(483.485 272.548)" fill="#d9b898"/>
      <path id="Path_92" data-name="Path 92" d="M287.017,254.6a63.679,63.679,0,0,1,17.1-21.039,48.283,48.283,0,0,1,20.959-9.348,59.043,59.043,0,0,1,22.93.613,88.894,88.894,0,0,1,22.957,8.629l58.59,31.479L412.719,296.28,354.129,264.8a57.925,57.925,0,0,0-11.345-4.661,33.719,33.719,0,0,0-11.052-1.358,20.906,20.906,0,0,0-9.641,2.663,19.494,19.494,0,0,0-7.3,7.99,20.266,20.266,0,0,0-2.663,10.653,19.709,19.709,0,0,0,3.089,9.641,37.126,37.126,0,0,0,7.35,8.389,56.938,56.938,0,0,0,9.987,6.818l58.59,31.479-16.831,31.319-58.59-31.479a84.741,84.741,0,0,1-20.453-15.047,59.042,59.042,0,0,1-12.917-19.042,47.486,47.486,0,0,1-3.382-22.424,65.514,65.514,0,0,1,8.043-25.141Z" transform="translate(456.679 364.538)" fill="#d9b898"/>
      <path id="Path_93" data-name="Path 93" d="M302.056,371.07a114.779,114.779,0,0,0,12.437-2.876,101.19,101.19,0,0,0,11.132-4.155,40.58,40.58,0,0,0,10.173-6.365,16.913,16.913,0,0,0,4.714-5.966,5.007,5.007,0,0,0-.959-5.593,6.072,6.072,0,0,0-5.646-2.077,30.966,30.966,0,0,0-8.655,2.663c-3.409,1.518-7.537,3.329-12.331,5.326A113.172,113.172,0,0,1,291.75,359.3a32.119,32.119,0,0,1-34.355-11.931,40.8,40.8,0,0,1-9.481-17.47,33.637,33.637,0,0,1,.373-16.911,48.922,48.922,0,0,1,7.59-15.473,77.551,77.551,0,0,1,12.2-13.316,105.676,105.676,0,0,1,15.979-11.239,126.773,126.773,0,0,1,18.323-8.762,101.779,101.779,0,0,1,18.3-5.326l8.868,33.663a129.836,129.836,0,0,0-14.727,3.3,100.841,100.841,0,0,0-13.316,5.007,52.181,52.181,0,0,0-12.7,7.99,15.685,15.685,0,0,0-5.193,6.418,4.474,4.474,0,0,0,.826,4.448,6.471,6.471,0,0,0,6.9,1.838,61.232,61.232,0,0,0,10.653-3.808q6.152-2.663,13.742-5.992a81.517,81.517,0,0,1,19.708-5.619,30.973,30.973,0,0,1,15.606,1.651,33.8,33.8,0,0,1,13.076,9.88A40.48,40.48,0,0,1,374.6,340.177a42.61,42.61,0,0,1-3.968,22.637,57.017,57.017,0,0,1-14.781,19.308,72.964,72.964,0,0,1-15.659,10.253,120.939,120.939,0,0,1-16.219,6.631c-5.326,1.7-10.12,3.089-14.328,4.155Z" transform="translate(403.849 423.573)" fill="#d9b898"/>
      <path id="Path_94" data-name="Path 94" d="M218.3,344.668,206.74,315.879l85.622-34.409,48.23,120.163-84.13,33.823L244.9,406.667l51.107-20.533L289.219,369.2l-43.6,17.55L234.97,360.114l43.65-17.55L271,323.628Z" transform="translate(336.87 461.161)" fill="#d9b898"/>
      <path id="Path_95" data-name="Path 95" d="M192.6,333.2h-12.81s-5.326,24.315,0,29.535c2.264,2.29,10.653,2.29,12.81,0C197.818,357.515,192.6,333.2,192.6,333.2Z" transform="translate(288.108 547.198)" fill="#d9b898"/>
      <path id="Path_96" data-name="Path 96" d="M244.446,398.266c-8.9-5.06-15.979-15.26-21.572-25.806a18.932,18.932,0,0,0,7.244-1.3c2.4-1.2,5.326-3.888,3.009-5.326-6.552-3.728-11.8-11.372-15.713-19.148a16.645,16.645,0,0,0,6.472-1.012c1.784-.879,3.968-2.9,2.237-3.888-5.779-3.276-10.2-10.653-13.316-17.471a13.848,13.848,0,0,0,5.646-.693c1.252-.639,2.663-2.051,1.571-2.663-8.469-4.82-12.783-22.158-12.783-22.158a1.838,1.838,0,0,0-1.6-.905,1.785,1.785,0,0,0-1.571.905s-4.314,17.337-12.783,22.158c-1.225.692.32,2.1,1.571,2.663a13.715,13.715,0,0,0,5.646.692c-3.036,6.791-7.457,14.195-13.316,17.471-1.731.985.453,3.009,2.237,3.888a16.644,16.644,0,0,0,6.472,1.012c-3.915,7.777-9.161,15.42-15.713,19.148-2.344,1.332.613,4.022,3.009,5.326a18.8,18.8,0,0,0,7.217,1.305c-5.46,10.653-12.65,20.746-21.545,25.806-3.276,1.864.852,5.673,4.261,7.377,8.629,4.288,34.435,0,34.435,0s25.833,4.288,34.462,0C243.567,403.938,247.722,400.13,244.446,398.266Z" transform="translate(268.565 488.47)" fill="#d9b898"/>
    </g>
  </g>
</svg>
