<svg xmlns="http://www.w3.org/2000/svg" xmlns:xlink="http://www.w3.org/1999/xlink" viewBox="0 0 500 500"><defs><style>.cls-1{opacity:0.1;}.cls-2{fill:none;stroke:#d9b898;stroke-miterlimit:10;stroke-width:3.86px;}.cls-3{fill:#d9b898;}.cls-4{fill:#fff;}.cls-5{fill:url(#linear-gradient);}</style><linearGradient id="linear-gradient" x1="250" x2="250" y2="500" gradientUnits="userSpaceOnUse"><stop offset="0" stop-color="#fff" stop-opacity="0"/><stop offset="1" stop-color="#f5f5f5"/></linearGradient></defs><g id="Layer_2" data-name="Layer 2"><g id="Layer_1-2" data-name="Layer 1"><g id="Layer_2-2" data-name="Layer 2" class="cls-1"><g id="Layer_1-3" data-name="Layer 1"><circle id="Ellipse_15" data-name="Ellipse 15" class="cls-2" cx="250.07" cy="250.14" r="245.67"/><circle id="Ellipse_16" data-name="Ellipse 16" class="cls-2" cx="250.07" cy="250.14" r="138.07"/><path id="Path_72" data-name="Path 72" class="cls-3" d="M250.07,100A150.09,150.09,0,1,1,144,144.05,150.09,150.09,0,0,1,250.07,100m0-84C120.81,16,16,120.79,16,250.05s104.78,234.07,234,234.08,234.08-104.78,234.09-234-104.77-234-234-234Z"/><path id="Path_73" data-name="Path 73" class="cls-3" d="M205.45,276.34H189.94s-6.32,29.41,0,35.73c2.76,2.75,12.77,2.75,15.51,0C211.77,305.75,205.45,276.34,205.45,276.34Z"/><path id="Path_74" data-name="Path 74" class="cls-3" d="M244.5,284c-10.77-6.13-19.46-18.44-26.07-31.17a22.92,22.92,0,0,0,8.74-1.6c2.9-1.38,6.45-4.69,3.64-6.31-7.92-4.5-14.26-13.76-19-23.15a19.5,19.5,0,0,0,7.82-1.22c2.15-1.07,4.8-3.49,2.75-4.69-7-4-12.39-12.9-16-21.12a16.61,16.61,0,0,0,6.89-.84c1.51-.76,3.38-2.46,1.91-3.3-10.24-5.84-15.46-26.8-15.46-26.8a2.22,2.22,0,0,0-3-.8,2.27,2.27,0,0,0-.8.8s-5.22,21-15.46,26.79c-1.48.84.4,2.55,1.91,3.31a16.59,16.59,0,0,0,6.81.84c-3.67,8.26-9,17.14-16,21.12-2.08,1.19.57,3.61,2.75,4.69a19.52,19.52,0,0,0,7.83,1.21c-4.76,9.41-11,18.66-19,23.16-2.75,1.61.75,4.86,3.64,6.31a22.92,22.92,0,0,0,8.66,1.58C170.42,265.56,161.72,277.87,151,284c-4,2.28,1.06,6.89,5.15,8.91,10.44,5.22,41.65,0,41.65,0s31.21,5.22,41.65,0C243.43,290.88,248.46,286.28,244.5,284Z"/><path id="Path_75" data-name="Path 75" class="cls-3" d="M306.06,276.34H290.55s-6.32,29.41,0,35.73c2.75,2.75,12.76,2.75,15.51,0C312.38,305.75,306.06,276.34,306.06,276.34Z"/><path id="Path_76" data-name="Path 76" class="cls-3" d="M345.1,284c-10.75-6.13-19.45-18.44-26.06-31.17a22.92,22.92,0,0,0,8.74-1.6c2.89-1.38,6.44-4.69,3.63-6.31-7.91-4.5-14.25-13.76-19-23.15a19.69,19.69,0,0,0,7.83-1.21c2.16-1.08,4.8-3.5,2.75-4.7-7-4-12.32-12.9-16-21.12a16.38,16.38,0,0,0,6.8-.84c1.53-.76,3.38-2.46,1.91-3.3-10.24-5.84-15.46-26.8-15.46-26.8a2.22,2.22,0,0,0-3-.79,2.17,2.17,0,0,0-.8.79s-5.22,21-15.46,26.8c-1.48.84.4,2.55,1.91,3.3a16.45,16.45,0,0,0,6.89.84c-3.67,8.26-9,17.14-16,21.12-2.09,1.2.55,3.62,2.75,4.7a19.69,19.69,0,0,0,7.83,1.21c-4.74,9.4-11.09,18.65-19,23.16-2.75,1.61.75,4.86,3.64,6.3a22.71,22.71,0,0,0,8.55,1.58c-6.62,12.74-15.31,25.05-26.07,31.18-4,2.27,1.05,6.88,5.14,8.91,10.44,5.21,41.65,0,41.65,0s31.21,5.21,41.64,0C344,290.88,349.14,286.28,345.1,284Z"/><path id="Path_77" data-name="Path 77" class="cls-3" d="M261.85,307.72H238.29s-9.64,44.66,0,54.25c4.13,4.13,19.39,4.13,23.56,0C271.43,352.38,261.85,307.72,261.85,307.72Z"/><path id="Path_78" data-name="Path 78" class="cls-3" d="M321.12,319.37c-16.33-9.31-29.54-28-39.57-47.27,5.34-.19,10.17-.88,13.27-2.42,4.39-2.21,9.79-7.15,5.51-9.57-12-6.89-21.65-20.9-28.85-35.17,4.75,0,9.19-.51,11.87-1.86,3.28-1.62,7.3-5.31,4.13-7.11-10.61-6.05-18.71-19.61-24.27-32.07,4.06.1,8.07-.15,10.34-1.3s5.13-3.74,2.89-5C260.89,168.73,253,136.92,253,136.92a3.35,3.35,0,0,0-4.57-1.23,3.45,3.45,0,0,0-1.23,1.23s-7.93,31.81-23.49,40.66c-2.23,1.28.6,3.88,2.91,5s6.26,1.38,10.34,1.3c-5.51,12.46-13.68,26-24.28,32.07-3.18,1.8.84,5.5,4.13,7.11,2.69,1.38,7.12,1.84,11.87,1.86-7.2,14.27-16.83,28.31-28.84,35.17-4.28,2.42,1.13,7.36,5.5,9.57,3.11,1.54,7.94,2.23,13.28,2.42-10,19.35-23.24,38-39.57,47.34-6,3.44,1.59,10.42,7.8,13.52,12,6,42,9,55.9,10.13a90.19,90.19,0,0,0,14.7,0C271.42,342,301.4,339,313.37,333,319.52,329.79,327.11,322.81,321.12,319.37Z"/><path id="Path_79" data-name="Path 79" class="cls-4" d="M202,438.7a32.76,32.76,0,0,1-6.88,10.13A34.47,34.47,0,0,1,184.66,456a33,33,0,0,1-13,2.75,34.78,34.78,0,0,1-14.34-3.07,33.64,33.64,0,0,1-13.77-10.33,26.2,26.2,0,0,1-5.51-14l16.74-3.69a11.19,11.19,0,0,0,1.23,6.07,13.74,13.74,0,0,0,3.59,4.29,20.76,20.76,0,0,0,4.53,2.75,14.09,14.09,0,0,0,6.89,1.28,13.84,13.84,0,0,0,5.95-1.9,18,18,0,0,0,4.75-4.13,22.46,22.46,0,0,0,3.29-5.35,21.68,21.68,0,0,0,1.7-6.56,17.93,17.93,0,0,0-.51-6.44,13.87,13.87,0,0,0-2.9-5.51,14.53,14.53,0,0,0-5.37-3.87A18.16,18.16,0,0,0,172.9,407a13.51,13.51,0,0,0-5.51.46,11.13,11.13,0,0,0-4.92,3.12l-10.22-14.15a19.62,19.62,0,0,1,9.39-5.1,34.75,34.75,0,0,1,11.72-.74,39,39,0,0,1,11.39,2.9,31.08,31.08,0,0,1,11.33,8.14,34.2,34.2,0,0,1,6.63,11.5,36.52,36.52,0,0,1,2,12.95A33.69,33.69,0,0,1,202,438.7Z"/><path id="Path_80" data-name="Path 80" class="cls-4" d="M101.06,418.91l-14.78-14.3,31.23-62.94,13.42,13-6.62,11.82,13.59,13.15,11.59-7.07L163,385.66Zm17-41.37-11.91,21.23,20.86-12.61Z"/><path id="Path_81" data-name="Path 81" class="cls-4" d="M78.48,296.54a14.52,14.52,0,0,1,10.27-1.18,18.92,18.92,0,0,1,8.71,5.5,38.42,38.42,0,0,1,6.72,10.19L118.06,341,57.34,369.18,41,334a13.5,13.5,0,0,1-1.18-8.46,16.39,16.39,0,0,1,3.69-7.5,19.29,19.29,0,0,1,6.67-5.14,18.42,18.42,0,0,1,9.14-1.59,15,15,0,0,1,8.93,3.8,16.43,16.43,0,0,1,10.32-18.52ZM63.78,345.9l9.32-4.32L67.82,330.2a6.74,6.74,0,0,0-1.38-2,3.87,3.87,0,0,0-2.2-1,5.75,5.75,0,0,0-3.23.66,6.38,6.38,0,0,0-2.39,1.82,4,4,0,0,0-.77,2.12,4.64,4.64,0,0,0,.47,2.23Zm19.14-30.84a6.91,6.91,0,0,0-2.42,1.8,5.25,5.25,0,0,0-1.14,2.36,4,4,0,0,0,.34,2.54l6.41,13.77,10.17-4.73-6.13-13.17a5.45,5.45,0,0,0-1.75-2.2,4.71,4.71,0,0,0-2.52-1,5.73,5.73,0,0,0-3,.59Z"/><path id="Path_82" data-name="Path 82" class="cls-4" d="M95.65,284.75,29.56,295.51l-2.95-18.15L92.7,266.61Z"/><path id="Path_83" data-name="Path 83" class="cls-4" d="M59.3,237.18l32.64,4.13-2.31,18.26-66.42-8.44L25,236.91l37.18-22.36-33.78-4.3L30.73,192l66.44,8.49L95.34,215Z"/><path id="Path_84" data-name="Path 84" class="cls-4" d="M77.79,159.8a32.39,32.39,0,0,1-8.26-9A33.89,33.89,0,0,1,65,139a32.86,32.86,0,0,1,.28-13.25,34.5,34.5,0,0,1,6.31-13.24,33.67,33.67,0,0,1,13.2-11.1,26,26,0,0,1,14.87-2.2l-.34,17.35a11.09,11.09,0,0,0-6.2-.21,14,14,0,0,0-5,2.51,20.91,20.91,0,0,0-3.69,3.77,14.14,14.14,0,0,0-2.85,6.32,13.78,13.78,0,0,0,.46,6.25,17.84,17.84,0,0,0,2.89,5.51,22.88,22.88,0,0,0,4.45,4.45,21.63,21.63,0,0,0,6,3.16,17.45,17.45,0,0,0,6.37,1,14,14,0,0,0,6-1.54,14.66,14.66,0,0,0,5-4.33,18.29,18.29,0,0,0,2.46-4.64,14,14,0,0,0,.8-5.4,11.33,11.33,0,0,0-1.89-5.51l16.15-6.66a19.76,19.76,0,0,1,2.76,10.31,34.59,34.59,0,0,1-2,11.57,38.49,38.49,0,0,1-5.5,10.41,31.06,31.06,0,0,1-10.48,9.19,34.14,34.14,0,0,1-12.72,3.8,36.23,36.23,0,0,1-13.07-1.1A33.38,33.38,0,0,1,77.79,159.8Z"/><path id="Path_85" data-name="Path 85" class="cls-4" d="M168.66,115.29A32.79,32.79,0,0,1,155.32,120a33.61,33.61,0,0,1-13.16-1.09,35.34,35.34,0,0,1-11.56-5.81,33.93,33.93,0,0,1-8.56-9.54,32.39,32.39,0,0,1-4.41-12.21,35.33,35.33,0,0,1,.53-12.92,33.21,33.21,0,0,1,5.41-12A33.86,33.86,0,0,1,133.9,57a32.43,32.43,0,0,1,26.5-3.55,36.3,36.3,0,0,1,11.52,5.87,34,34,0,0,1,8.52,9.45,32.88,32.88,0,0,1,4.4,12.12,34.58,34.58,0,0,1-.48,12.9,33.94,33.94,0,0,1-5.35,12A33.11,33.11,0,0,1,168.66,115.29ZM138.12,94.07a22.3,22.3,0,0,0,4.2,5.13,17.47,17.47,0,0,0,5.34,3.38,13.54,13.54,0,0,0,6.13.92,16.47,16.47,0,0,0,11.72-7.13,13,13,0,0,0,2-6,18.38,18.38,0,0,0-.63-6.35,24,24,0,0,0-2.56-6,22.22,22.22,0,0,0-4.13-5.08,17.44,17.44,0,0,0-5.37-3.24,13.26,13.26,0,0,0-6.14-.87,15.43,15.43,0,0,0-6.54,2.25A14.51,14.51,0,0,0,137,75.91a13.89,13.89,0,0,0-2,5.89,16.84,16.84,0,0,0,.53,6.28,23.39,23.39,0,0,0,2.58,6Z"/><path id="Path_86" data-name="Path 86" class="cls-4" d="M200.87,98.62,188.76,32.76l45.16-8.26,2.91,15.77-27.08,5,2,11,22-4.13,2.75,14.64-22,4.14L219,95.4Z"/><path id="Path_87" data-name="Path 87" class="cls-4" d="M248.63,90.82l8.07-66.45,45.58,5.5-1.92,15.92L273,42.47l-1.38,11,22.28,2.75-1.73,14.84L269.9,68.33l-3,24.78Z"/><path id="Path_88" data-name="Path 88" class="cls-4" d="M346.48,103.08l-6.77,14.54L296.46,97.45l28.31-60.68,42.47,19.8-6.77,14.51L334.65,59l-4,8.55,22,10.29L346.38,91.4l-22-10.28-4.46,9.57Z"/><path id="Path_89" data-name="Path 89" class="cls-4" d="M388.14,141.3l-11,11.63L342.5,120.09l46.07-48.57,34,32.25-11,11.63L390.88,95.86l-6.5,6.89,17.67,16.74L391.82,130.2l-17.68-16.74-7.27,7.65Z"/><path id="Path_90" data-name="Path 90" class="cls-4" d="M472.67,206.23l-63.43,21.41-5.89-17.42,24.85-8.34L421,180.61,396.23,189l-5.94-17.4,63.49-21.48,5.89,17.43-23.41,7.9,7.19,21.26,23.41-7.9Z"/><path id="Path_91" data-name="Path 91" class="cls-4" d="M407,263.29a32.67,32.67,0,0,1,4-13.56,33.28,33.28,0,0,1,8.6-10,34.87,34.87,0,0,1,11.47-5.95,33.93,33.93,0,0,1,12.75-1.37A32.4,32.4,0,0,1,456.28,236a35.12,35.12,0,0,1,10.16,8A33.41,33.41,0,0,1,473,255.4a33.78,33.78,0,0,1,1.58,13.9,32.31,32.31,0,0,1-12.66,23.55,35.79,35.79,0,0,1-11.51,5.89,33.67,33.67,0,0,1-12.66,1.38,32.83,32.83,0,0,1-12.39-3.55,34.37,34.37,0,0,1-10.14-7.95A33.38,33.38,0,0,1,407,263.29Zm35.1-12.3a22.57,22.57,0,0,0-6.61.4,17.63,17.63,0,0,0-5.88,2.34,13.55,13.55,0,0,0-4.33,4.42,16.61,16.61,0,0,0-1.11,13.67,13.21,13.21,0,0,0,3.7,5.1,19.22,19.22,0,0,0,5.5,3.21,23.93,23.93,0,0,0,6.36,1.37,22.29,22.29,0,0,0,6.57-.38,17.63,17.63,0,0,0,5.83-2.36,12.93,12.93,0,0,0,4.29-4.47,15.21,15.21,0,0,0,2-6.64,14.55,14.55,0,0,0-.93-6.88,13.92,13.92,0,0,0-3.6-5.08,16.59,16.59,0,0,0-5.41-3.25A23.6,23.6,0,0,0,442.1,251Z"/><path id="Path_92" data-name="Path 92" class="cls-4" d="M388.89,324.56a32.82,32.82,0,0,1,8.84-10.88,24.82,24.82,0,0,1,10.83-4.83,30.75,30.75,0,0,1,11.86.31,46.41,46.41,0,0,1,11.87,4.47l30.29,16.27-8.71,16.21-30.29-16.28a29.62,29.62,0,0,0-5.86-2.41,17.25,17.25,0,0,0-5.72-.7,10.8,10.8,0,0,0-5,1.38,10,10,0,0,0-3.77,4.13,10.4,10.4,0,0,0-1.38,5.5,10.19,10.19,0,0,0,1.6,5,19.19,19.19,0,0,0,3.8,4.34,29.76,29.76,0,0,0,5.16,3.52l30.29,16.27-8.7,16.2-30.29-16.28A43.68,43.68,0,0,1,393.16,359a30.49,30.49,0,0,1-6.68-9.84,24.59,24.59,0,0,1-1.75-11.59,33.75,33.75,0,0,1,4.16-13Z"/><path id="Path_93" data-name="Path 93" class="cls-4" d="M369.35,415.29a56.53,56.53,0,0,0,6.43-1.49,52.86,52.86,0,0,0,5.75-2.14,21,21,0,0,0,5.26-3.29,8.75,8.75,0,0,0,2.44-3.09,2.6,2.6,0,0,0-.49-2.89,3.13,3.13,0,0,0-2.92-1.07,16,16,0,0,0-4.48,1.37c-1.76.79-3.89,1.72-6.37,2.76a59,59,0,0,1-11,3.76A16.62,16.62,0,0,1,346.26,403a21.1,21.1,0,0,1-4.9-9,17.37,17.37,0,0,1,.19-8.74,25.48,25.48,0,0,1,3.92-8,40.38,40.38,0,0,1,6.31-6.88,54.57,54.57,0,0,1,8.26-5.81,65.28,65.28,0,0,1,9.47-4.53,52.83,52.83,0,0,1,9.46-2.76l4.59,17.41a66.52,66.52,0,0,0-7.62,1.71,52.72,52.72,0,0,0-6.88,2.58,27.35,27.35,0,0,0-6.57,4.13,8.19,8.19,0,0,0-2.68,3.32,2.31,2.31,0,0,0,.42,2.3,3.34,3.34,0,0,0,3.57.95,30.92,30.92,0,0,0,5.51-2c2.12-.91,4.49-1.95,7.1-3.1a42.07,42.07,0,0,1,10.19-2.9,16,16,0,0,1,8.07.85,17.46,17.46,0,0,1,6.76,5.11,20.89,20.89,0,0,1,5.43,11.65,22,22,0,0,1-2.05,11.7,29.46,29.46,0,0,1-7.65,10,38.39,38.39,0,0,1-8.09,5.3,61.73,61.73,0,0,1-8.39,3.42c-2.75.89-5.23,1.6-7.4,2.15Z"/><path id="Path_94" data-name="Path 94" class="cls-4" d="M291.42,421.07l-6-14.88,44.27-17.79,24.93,62.12L311.15,468l-6-14.88,26.42-10.62-3.51-8.76-22.54,9.08L300,429.06,322.6,420l-3.94-9.79Z"/><path id="Path_95" data-name="Path 95" class="cls-4" d="M252.92,459.63H246.3s-2.75,12.57,0,15.26c1.17,1.19,5.51,1.19,6.62,0C255.62,472.2,252.92,459.63,252.92,459.63Z"/><path id="Path_96" data-name="Path 96" class="cls-4" d="M269.62,462.9c-4.59-2.61-8.26-7.89-11.15-13.34a10,10,0,0,0,3.75-.67c1.24-.62,2.75-2,1.56-2.76-3.39-1.92-6.1-5.88-8.13-9.9a8.68,8.68,0,0,0,3.35-.52c.92-.45,2.05-1.5,1.16-2-3-1.69-5.28-5.51-6.89-9a7.23,7.23,0,0,0,2.92-.36c.65-.33,1.38-1.06.81-1.38-4.38-2.49-6.61-11.45-6.61-11.45a.93.93,0,0,0-.82-.47.91.91,0,0,0-.82.47s-2.23,9-6.6,11.45c-.64.36.16,1.09.81,1.38a7.23,7.23,0,0,0,2.92.36c-1.57,3.51-3.86,7.34-6.89,9-.89.51.24,1.56,1.16,2a8.68,8.68,0,0,0,3.35.52c-2,4-4.74,8-8.13,9.9-1.21.69.32,2.08,1.56,2.76a9.89,9.89,0,0,0,3.73.67c-2.82,5.51-6.54,10.73-11.14,13.34-1.69,1,.44,2.94,2.2,3.82,4.46,2.21,17.81,0,17.81,0s13.35,2.21,17.81,0C269.17,465.84,271.32,463.87,269.62,462.9Z"/></g></g><rect class="cls-5" width="500" height="500"/></g></g></svg>