<svg xmlns="http://www.w3.org/2000/svg" xmlns:xlink="http://www.w3.org/1999/xlink" viewBox="0 0 335.9 220.67"><defs><style>.cls-1{fill:url(#radial-gradient);}.cls-2{fill:#dadada;}.cls-3{fill:#b39374;}.cls-4{fill:#d9b898;}.cls-5{fill:#f5f5f5;}.cls-6{fill:none;stroke:#dfdfdf;stroke-miterlimit:10;stroke-width:18px;}.cls-7{fill:url(#linear-gradient);}</style><radialGradient id="radial-gradient" cx="83.73" cy="325.22" r="93.56" gradientTransform="translate(16.27 90.36) scale(1.66 0.31)" gradientUnits="userSpaceOnUse"><stop offset="0" stop-color="#888" stop-opacity="0.3"/><stop offset="0.25" stop-color="#888" stop-opacity="0.2"/><stop offset="0.7" stop-color="#888" stop-opacity="0.05"/><stop offset="1" stop-color="#888" stop-opacity="0"/></radialGradient><linearGradient id="linear-gradient" x1="177.09" y1="91.59" x2="299.23" y2="142.83" gradientUnits="userSpaceOnUse"><stop offset="0.36" stop-color="#f5f5f5"/><stop offset="0.52" stop-color="#efefef"/><stop offset="0.74" stop-color="#ddd"/><stop offset="0.99" stop-color="silver"/><stop offset="1" stop-color="#bfbfbf"/></linearGradient></defs><g id="Layer_2" data-name="Layer 2"><g id="Layer_1-2" data-name="Layer 1"><ellipse class="cls-1" cx="155" cy="191.56" rx="155" ry="29.11"/><ellipse class="cls-2" cx="155.11" cy="28.99" rx="128" ry="24.79"/><ellipse class="cls-3" cx="155.11" cy="36.99" rx="128" ry="24.79"/><ellipse class="cls-4" cx="155.11" cy="36.99" rx="104.48" ry="20.23"/><ellipse class="cls-3" cx="155.11" cy="36.99" rx="88.56" ry="17.15"/><ellipse class="cls-4" cx="155.11" cy="36.99" rx="51.69" ry="10.01"/><path class="cls-5" d="M155,5c34.91,0,67.67,3,92.26,8.47C275.76,19.81,282,27.07,282,29.33s-6.24,9.53-34.74,15.86c-24.59,5.47-57.35,8.48-92.26,8.48s-67.66-3-92.25-8.48C34.25,38.86,28,31.6,28,29.33s6.25-9.52,34.75-15.86C87.34,8,120.1,5,155,5m0-5C82.1,0,23,13.13,23,29.33S82.1,58.67,155,58.67,287,45.53,287,29.33,227.9,0,155,0Z"/><ellipse class="cls-6" cx="304.05" cy="70.9" rx="28.31" ry="22.8" transform="translate(206.2 367.38) rotate(-84.86)"/><path class="cls-7" d="M155.11,57.22,155,191.56h.89A131.11,131.11,0,0,0,287,60.44l-.06-32C286.94,44.64,228,57.22,155.11,57.22Z"/><path class="cls-5" d="M23,28.17V60A131.56,131.56,0,0,0,154.56,191.56h0a.45.45,0,0,0,.44-.45l.11-133.89C82.21,57.22,23,44.37,23,28.17Z"/></g></g></svg>